<?xml version="1.0" encoding="UTF-8" standalone="no"?><!DOCTYPE svg PUBLIC "-//W3C//DTD SVG 1.1//EN" "http://www.w3.org/Graphics/SVG/1.1/DTD/svg11.dtd"><svg wersion="1.2" baseProfile="tiny-ps" id="svg22" viewBox="0 0 192 192" version="1.1" xmlns="http://www.w3.org/2000/svg" xmlns:xlink="http://www.w3.org/1999/xlink" xml:space="preserve" xmlns:serif="http://www.serif.com/" style="fill-rule:evenodd;clip-rule:evenodd;stroke-linejoin:round;stroke-miterlimit:2;"><title>BIMI Group</title><rect x="0" y="0" width="192" height="192" style="fill:white;"/><g><path d="M18.05,96.954L19.058,97.416L20.107,97.878L21.115,98.34L22.165,98.802L23.173,99.306L24.181,99.809L25.189,100.314L26.196,100.859L27.204,101.405L28.211,101.951L29.177,102.497L30.185,103.043L31.151,103.631L32.159,104.218L33.124,104.764L34.09,105.394L35.057,105.982L36.023,106.57L36.946,107.2L37.912,107.788L39.76,109.048L41.607,110.265L43.371,111.525L45.134,112.743L46.857,114.003L48.536,115.22L46.646,114.255L44.799,113.247L41.104,111.231L39.256,110.224L37.45,109.216L35.603,108.208L33.797,107.2L31.991,106.192L30.143,105.142L28.338,104.134L26.532,103.127L24.726,102.077L22.878,101.069L21.073,100.019L19.226,99.011L19.183,98.928L19.183,98.843L19.141,98.802L19.1,98.718L18.973,98.592L18.89,98.466L18.595,98.255L18.343,98.088L18.218,97.962L18.134,97.878L18.05,97.752L17.965,97.626L17.965,97.542L17.924,97.5L17.924,97.248L17.965,97.164L18.007,97.08L18.05,96.954Z"/><path d="M37.66,84.819L38.625,84.819L38.625,85.785L38.584,85.994L38.584,86.246L38.542,86.498L38.5,86.708L38.374,87.212L38.248,87.674L37.912,88.597L37.534,89.522L37.156,90.445L36.988,90.908L36.82,91.369L36.652,91.831L36.484,92.293L37.828,93.007L39.172,93.72L40.558,94.393L41.901,95.106L44.588,96.45L47.276,97.794L50.006,99.096L52.693,100.356L55.422,101.657L58.11,102.917L60.84,104.176L63.569,105.437L66.298,106.738L69.028,107.998L71.757,109.299L74.487,110.602L77.258,111.945L79.987,113.289L80.24,113.541L80.744,113.961L80.953,114.171L81.038,114.297L81.122,114.423L81.163,114.549L81.206,114.717L81.248,114.843L81.248,115.22L81.163,115.431L78.14,114.003L75.117,112.575L72.093,111.19L69.112,109.804L66.089,108.418L63.149,107.074L60.21,105.689L57.228,104.303L54.331,102.875L51.392,101.447L49.964,100.734L48.493,100.019L47.025,99.263L45.597,98.508L44.127,97.752L42.699,96.996L41.229,96.198L39.801,95.443L38.374,94.645L36.946,93.847L35.476,93.007L34.049,92.167L34.384,91.663L34.72,91.201L35.015,90.739L35.266,90.235L35.518,89.773L35.728,89.312L35.896,88.892L36.106,88.429L36.442,87.506L36.778,86.624L36.988,86.162L37.198,85.742L37.408,85.28L37.66,84.819Z"/><path d="M39.496,83.332L40.739,83.553L41.883,83.743L42.93,83.933L43.912,84.091L44.86,84.281L45.743,84.439L46.593,84.629L47.444,84.787L48.294,84.977L49.144,85.166L49.995,85.356L50.911,85.609L51.859,85.862L52.905,86.147L53.984,86.431L55.195,86.779L56.34,87.285L57.55,87.823L58.826,88.392L60.134,88.961L60.82,89.277L61.474,89.594L62.161,89.91L62.815,90.226L63.469,90.574L64.124,90.89L64.778,91.238L65.432,91.618L66.054,91.997L66.675,92.344L67.297,92.756L67.885,93.136L68.441,93.546L68.997,93.958L69.52,94.369L70.011,94.811L70.469,95.254L70.927,95.729L71.319,96.171L71.679,96.677L72.038,97.151L72.333,97.657L72.594,98.163L72.791,98.669L71.875,97.879L70.959,97.12L70.043,96.361L69.062,95.665L68.114,94.97L67.133,94.337L66.152,93.704L65.138,93.104L64.124,92.503L63.11,91.966L62.063,91.428L59.971,90.416L58.891,89.941L57.812,89.499L56.699,89.088L55.62,88.677L54.508,88.265L53.396,87.886L52.251,87.507L51.14,87.191L49.995,86.843L48.85,86.526L47.673,86.209L46.528,85.893L45.35,85.609L44.206,85.325L42.996,85.071L41.818,84.787L40.641,84.534L39.464,84.281L38.253,84.059L38.319,83.965L38.385,83.901L38.417,83.838L38.482,83.806L38.548,83.743L38.613,83.712L38.646,83.68L38.711,83.648L38.842,83.617L39.039,83.553L39.234,83.459L39.496,83.332Z"/><path d="M49.166,74.573L51.727,72.221L54.289,69.869L56.808,67.517L59.37,65.124L61.889,62.731L64.409,60.337L66.929,57.943L69.49,55.55L72.052,53.156L74.613,50.805L75.872,49.629L77.175,48.495L78.476,47.362L79.778,46.186L81.08,45.052L82.381,43.96L83.684,42.826L84.985,41.734L86.328,40.643L87.672,39.551L89.016,38.501L90.36,37.451L88.722,39.341L87.084,41.189L85.447,42.952L83.852,44.674L82.256,46.354L80.702,47.992L79.148,49.587L77.594,51.141L76.083,52.653L74.613,54.08L73.101,55.507L71.674,56.893L70.246,58.238L68.818,59.581L67.432,60.841L66.089,62.101L63.443,64.494L60.923,66.762L58.529,68.945L56.262,71.003L55.17,72.011L54.121,73.018L53.071,73.985L52.105,74.951L51.14,75.874L50.257,76.798L49.376,77.722L48.536,78.646L45.261,78.436L45.302,78.268L45.344,78.141L45.429,77.973L45.512,77.848L45.597,77.722L45.681,77.596L45.806,77.47L45.89,77.302L46.142,77.092L46.394,76.84L46.646,76.63L46.94,76.377L47.528,75.916L48.116,75.496L48.368,75.244L48.662,75.034L48.914,74.824L49.166,74.573Z"/><path d="M12.213,105.236L15.818,107.279L19.302,109.441L23.027,111.484L26.752,113.647L30.597,115.81L34.322,117.973L38.167,120.256L41.892,122.539L43.695,123.62L45.497,124.822L47.3,126.023L49.102,127.225L50.784,128.427L52.466,129.628L54.148,130.95L55.711,132.152L57.393,133.473L58.955,134.675L60.397,135.997L61.839,137.319L63.161,138.64L64.482,140.082L65.684,141.404L66.886,142.726L66.045,142.485L65.203,142.125L64.122,141.645L62.921,141.043L61.719,140.443L60.517,139.722L59.076,139.001L57.634,138.159L54.51,136.237L51.024,134.074L47.419,131.671L43.454,129.028L39.489,126.384L35.283,123.501L30.957,120.616L26.631,117.612L22.186,114.608L17.74,111.484L13.294,108.48L8.968,105.596L8.968,104.995L9.088,104.755L9.329,104.635L9.449,104.635L9.689,104.515L9.929,104.515L10.29,104.635L10.771,104.755L11.371,104.876L11.852,105.116L12.213,105.236Z"/><path d="M8.544,112.008L9.638,112.599L10.842,113.275L12.264,114.118L13.795,115.045L15.327,116.016L17.076,117.069L18.827,118.209L20.686,119.389L22.655,120.653L24.624,121.961L26.702,123.352L28.781,124.701L33.047,127.567L37.423,130.518L41.689,133.427L45.845,136.293L49.893,139.117L53.722,141.731L57.113,144.133L60.175,146.241L62.691,148.053L64.66,149.444L64.551,149.612L64.332,149.695L64.223,149.779L64.004,149.821L63.785,149.862L63.566,149.819L63.348,149.819L63.129,149.818L62.801,149.733L62.473,149.648L62.254,149.564L61.926,149.437L61.597,149.31L61.269,149.183L60.942,149.014L60.503,148.804L59.848,148.466L59.191,148.128L58.425,147.706L57.769,147.326L56.566,146.567L55.472,145.893L54.05,145.007L52.628,144.08L51.206,143.11L49.784,142.183L46.831,140.243L43.986,138.304L41.142,136.323L38.298,134.384L35.563,132.445L32.938,130.591L8.544,112.008Z"/><path d="M54.96,117.026L56.01,117.614L57.103,118.16L58.194,118.705L59.286,119.252L61.511,120.301L63.695,121.351L65.921,122.401L68.104,123.451L70.329,124.501L74.697,126.684L76.88,127.776L77.931,128.322L79.022,128.91L80.072,129.498L81.122,130.086L82.171,130.674L83.221,131.262L84.271,131.891L85.279,132.521L86.286,133.151L87.294,133.823L88.302,134.495L89.268,135.167L89.1,135.292L88.932,135.419L88.764,135.503L88.596,135.587L88.47,135.629L88.302,135.67L87.672,135.67L87.336,135.587L87.043,135.503L86.706,135.377L86.119,135.041L85.488,134.747L85.153,134.621L84.649,134.495L84.481,134.453L84.355,134.411L84.145,134.411L82.339,133.361L80.45,132.353L78.602,131.303L76.67,130.296L72.891,128.28L70.959,127.23L69.07,126.222L68.146,125.676L67.18,125.173L66.256,124.626L65.333,124.081L64.409,123.535L63.485,122.989L62.603,122.443L61.679,121.897L60.798,121.309L59.958,120.721L59.076,120.133L58.236,119.546L57.396,118.915L56.556,118.327L55.758,117.656L54.96,117.026Z"/><path d="M63.485,125.046L62.981,125.214L62.435,125.383L61.931,125.551L61.386,125.676L60.84,125.802L60.293,125.929L59.748,126.054L59.202,126.18L58.656,126.264L58.152,126.349L57.606,126.432L57.061,126.516L56.053,126.642L55.045,126.727L55.087,126.6L55.17,126.474L55.255,126.307L55.38,126.18L55.548,126.054L55.717,125.887L56.136,125.634L56.388,125.509L56.683,125.383L56.934,125.256L57.228,125.131L57.564,125.046L57.858,124.963L58.194,124.836L58.529,124.753L58.866,124.711L59.244,124.626L59.58,124.585L59.915,124.543L60.252,124.501L60.63,124.459L61.301,124.459L61.596,124.501L61.931,124.501L62.225,124.585L62.519,124.626L62.771,124.711L63.023,124.795L63.275,124.921L63.485,125.046Z"/><path d="M63.023,127.147L63.317,127.147L63.653,127.062L63.989,127.02L64.367,126.936L64.745,126.894L65.206,126.81L65.626,126.768L66.046,126.684L67.18,126.684L67.432,126.727L67.642,126.768L67.894,126.81L68.104,126.852L68.315,126.894L68.524,126.978L68.734,127.062L69.154,127.315L69.364,127.44L69.574,127.608L69.448,127.65L69.28,127.692L69.154,127.735L68.986,127.776L68.566,127.818L68.146,127.902L67.097,128.028L65.921,128.196L65.291,128.238L64.618,128.364L63.947,128.49L63.275,128.658L62.939,128.742L62.603,128.826L62.225,128.952L61.889,129.078L61.596,129.204L61.259,129.33L60.923,129.456L60.588,129.624L60.462,129.539L60.293,129.456L60.042,129.204L60,129.12L59.958,129.036L59.958,128.868L60,128.784L60.042,128.7L60.083,128.616L60.168,128.532L60.252,128.448L60.335,128.364L60.462,128.28L60.713,128.112L61.008,127.944L61.301,127.818L61.638,127.65L61.974,127.524L62.351,127.398L62.687,127.272L63.023,127.147Z"/><path d="M72.765,129.749L72.891,129.749L73.017,129.792L73.101,129.834L73.227,129.876L73.395,130.044L73.521,130.169L73.689,130.337L73.857,130.464L73.941,130.547L74.025,130.589L74.109,130.632L74.235,130.715L73.647,130.842L73.059,131.009L72.471,131.135L71.883,131.262L71.295,131.387L70.666,131.513L70.078,131.64L69.448,131.765L68.86,131.85L68.272,131.933L67.642,132.017L67.054,132.101L66.466,132.185L65.878,132.269L65.333,132.353L64.745,132.395L64.828,132.06L64.955,131.765L65.081,131.513L65.249,131.262L65.416,131.052L65.626,130.842L65.794,130.715L66.046,130.547L66.256,130.422L66.509,130.296L66.76,130.212L67.054,130.127L67.307,130.086L67.6,130.002L67.894,129.96L68.188,129.96L68.818,129.918L69.406,129.876L70.036,129.918L71.212,129.918L71.757,129.876L72.052,129.876L72.303,129.834L72.513,129.792L72.765,129.749Z"/><path d="M50.896,81.244L52.56,81.501L54.224,81.716L55.852,81.887L57.445,82.097L59.036,82.264L60.592,82.471L62.184,82.639L63.739,82.845L65.295,83.01L66.851,83.259L68.407,83.466L69.962,83.714L71.518,83.963L73.11,84.215L74.701,84.55L76.366,84.891L76.148,85.084L76.004,85.283L75.896,85.358L75.823,85.395L75.75,85.473L75.642,85.506L75.57,85.543L75.462,85.576L75.389,85.612L75.28,85.646L75.027,85.667L74.774,85.648L74.159,85.642L73.29,85.573L72.784,85.575L72.169,85.568L71.518,85.601L70.758,85.625L69.275,85.382L67.828,85.141L66.381,84.943L64.933,84.745L63.486,84.547L62.075,84.31L60.628,84.112L59.217,83.874L57.806,83.595L56.395,83.358L55.707,83.219L55.02,83.039L54.333,82.901L53.646,82.721L52.958,82.54L52.271,82.36L51.583,82.18L50.896,81.958L50.245,81.781L49.557,81.516L48.906,81.297L48.219,81.033L50.896,81.244Z"/><path d="M78.602,132.605L78.77,132.648L78.938,132.689L79.106,132.731L79.316,132.773L79.652,132.815L79.987,132.857L80.156,132.899L80.282,132.941L80.407,132.983L80.534,133.067L80.66,133.151L80.744,133.277L80.785,133.319L80.785,133.403L80.827,133.487L80.87,133.571L80.156,133.655L79.4,133.739L78.644,133.865L77.888,133.991L77.09,134.159L76.25,134.327L75.452,134.495L74.613,134.662L73.773,134.872L72.975,135.082L72.135,135.292L71.295,135.503L70.456,135.713L68.86,136.133L68.062,136.343L67.978,136.258L67.852,136.175L67.81,136.048L67.727,135.965L67.727,135.88L67.684,135.755L67.642,135.67L67.642,135.503L67.684,135.377L67.684,135.292L67.727,135.209L67.768,135.125L67.81,134.999L67.894,134.915L67.936,134.831L68.104,134.662L68.272,134.495L68.44,134.327L68.608,134.201L68.818,134.033L68.986,133.949L69.154,133.865L69.364,133.781L69.91,133.613L70.456,133.487L71.044,133.361L71.59,133.235L72.177,133.151L72.765,133.067L73.395,132.983L73.983,132.941L75.201,132.815L76.335,132.731L77.511,132.648L78.602,132.605Z"/><path d="M79.694,149.57L109.34,147.429L110.768,147.177L112.238,146.924L113.707,146.672L115.135,146.462L118.075,146.043L121.014,145.623L123.996,145.203L126.935,144.825L128.404,144.615L129.874,144.363L131.344,144.153L132.814,143.901L134.242,143.607L135.711,143.355L137.139,143.061L138.609,142.725L140.036,142.389L141.464,142.011L142.85,141.591L144.236,141.171L145.621,140.71L147.007,140.205L148.393,139.66L149.736,139.072L151.08,138.484L152.382,137.812L153.684,137.098L154.985,136.343L155.069,135.46L155.195,134.537L155.28,133.655L155.364,132.731L155.489,131.85L155.615,130.967L155.742,130.086L155.91,129.246L156.077,128.364L156.245,127.482L156.455,126.642L156.665,125.802L156.791,125.424L156.917,125.004L157.043,124.585L157.211,124.165L157.337,123.745L157.505,123.367L157.673,122.989L157.841,122.569L157.883,123.073L157.883,123.535L157.925,123.997L157.925,125.467L157.883,126.474L157.841,127.482L157.799,128.49L157.715,129.498L157.631,130.506L157.589,131.555L157.505,132.563L157.463,133.613L157.421,134.621L157.379,135.67L157.379,137.686L157.421,138.19L157.421,138.694L156.581,139.197L155.742,139.66L154.902,140.08L154.019,140.5L153.138,140.92L152.256,141.298L151.374,141.676L150.492,142.011L149.569,142.347L148.645,142.684L147.721,142.977L146.797,143.271L145.874,143.523L144.949,143.775L143.983,144.027L143.06,144.279L142.094,144.531L141.171,144.741L140.204,144.951L139.238,145.161L137.349,145.581L135.46,145.959L133.527,146.337L131.638,146.757L129.749,147.134L127.901,147.554L125.214,147.89L122.442,148.268L119.544,148.646L116.563,149.024L113.497,149.402L110.39,149.78L108.794,149.948L107.198,150.116L105.561,150.284L103.966,150.452L102.328,150.578L100.648,150.746L99.01,150.83L97.33,150.956L95.651,151.039L93.971,151.124L92.292,151.166L90.612,151.207L87.211,151.207L85.531,151.166L83.852,151.124L82.171,151.039L80.492,150.956L77.133,150.619L77.133,150.536L77.175,150.452L77.216,150.368L77.258,150.284L77.3,150.242L77.385,150.2L77.426,150.116L77.511,150.074L77.636,149.99L77.973,149.906L78.182,149.864L78.56,149.821L78.938,149.78L79.148,149.738L79.358,149.696L79.526,149.654L79.694,149.57Z"/><path d="M131.789,39.288L130.609,40.272L129.429,41.294L128.248,42.317L127.068,43.38L125.887,44.403L124.707,45.466L123.487,46.528L122.307,47.59L121.126,48.653L119.907,49.676L118.686,50.699L117.467,51.722L116.247,52.745L114.988,53.769L113.768,54.713L112.509,55.657L112.273,55.814L111.997,55.932L111.761,56.09L111.564,56.208L111.328,56.366L111.132,56.523L110.895,56.641L110.699,56.759L110.62,56.798L110.502,56.837L110.423,56.877L110.029,56.877L109.951,56.837L109.872,56.837L109.754,56.759L109.676,56.719L109.597,56.641L109.479,56.562L109.4,56.444L109.322,56.326L109.203,56.168L110.266,55.145L111.328,54.122L112.391,53.139L113.414,52.155L114.476,51.211L115.499,50.267L116.522,49.362L117.545,48.416L119.513,46.606L120.496,45.701L121.48,44.757L122.464,43.852L123.409,42.908L124.353,41.964L125.297,40.98L124.274,40.823L123.212,40.704L122.149,40.586L121.087,40.507L120.064,40.429L119.002,40.311L117.939,40.232L116.876,40.154L114.791,40.036L112.666,39.957L110.541,39.839L108.456,39.76L106.331,39.681L104.246,39.563L102.12,39.484L99.996,39.367L98.934,39.327L97.871,39.249L95.746,39.091L94.684,39.013L93.622,38.894L92.598,38.776L91.536,38.658L92.992,38.462L94.527,38.304L96.1,38.146L97.713,38.029L99.366,37.95L102.75,37.871L107.905,37.871L109.636,37.95L111.328,37.989L113.02,38.068L114.673,38.146L116.287,38.226L117.899,38.344L120.89,38.54L123.644,38.776L126.084,38.973L128.169,39.131L129.861,39.288L131.042,39.367L131.711,39.367L131.829,39.327L131.789,39.288Z"/><path d="M177.703,114.171L177.787,112.911L177.871,112.323L177.913,111.693L177.997,111.063L178.039,110.433L178.123,109.845L178.207,109.257L178.291,108.628L178.417,108.04L178.543,107.452L178.669,106.864L178.879,106.277L179.047,105.689L179.173,105.394L179.257,105.101L179.383,104.849L179.509,104.554L179.467,105.269L179.425,105.982L179.425,106.738L179.467,107.452L179.467,108.166L179.509,108.922L179.551,109.636L179.593,110.35L179.635,111.105L179.677,111.819L179.677,112.575L179.635,113.289L179.635,113.667L179.593,114.003L179.593,114.38L179.551,114.758L179.467,115.095L179.425,115.473L179.383,115.808L179.299,116.186L178.753,116.48L178.207,116.816L177.619,117.11L177.073,117.362L176.485,117.656L175.897,117.866L175.31,118.118L174.722,118.327L174.134,118.538L173.504,118.705L172.916,118.915L172.287,119.042L171.657,119.21L171.069,119.335L170.439,119.462L169.809,119.546L169.178,119.63L168.549,119.672L167.919,119.755L167.289,119.798L164.812,119.798L164.182,119.755L163.594,119.713L162.964,119.63L162.376,119.546L161.746,119.462L161.158,119.335L160.57,119.21L159.983,119.042L160.486,118.832L161.033,118.664L161.536,118.454L162.082,118.286L162.629,118.16L163.174,118.034L163.72,117.908L164.308,117.824L165.441,117.614L166.617,117.446L167.793,117.279L168.969,117.11L169.556,117.026L170.144,116.942L170.732,116.858L171.32,116.774L171.867,116.648L172.454,116.48L173,116.354L173.588,116.186L174.134,116.018L174.679,115.808L175.184,115.598L175.73,115.388L176.234,115.095L176.738,114.8L177.2,114.507L177.703,114.171Z"/><path d="M163.846,120.974L165.861,121.484L165.778,123.655L165.693,125.761L165.609,127.804L165.568,129.783L165.568,131.761L165.526,133.74L165.526,139.549L165.568,141.463L165.568,143.379L165.609,145.358L165.651,147.336L165.651,149.378L165.693,151.421L165.736,153.591L165.568,153.783L165.441,153.974L165.273,154.229L165.063,154.421L164.98,154.485L164.896,154.485L164.812,154.549L164.728,154.549L164.602,154.485L164.476,154.421L164.392,154.357L164.265,154.229L164.14,153.209L164.055,152.187L163.972,151.102L163.93,150.081L163.846,148.996L163.804,147.974L163.72,146.889L163.677,145.868L163.636,143.762L163.594,141.655L163.594,137.442L163.636,135.336L163.636,133.23L163.677,131.123L163.72,129.08L163.804,124.995L163.846,122.952L163.846,120.974Z"/><path d="M168.717,123.399L168.759,123.208L168.801,122.952L168.885,122.697L168.927,122.505L169.011,122.25L169.095,122.059L169.221,121.804L169.305,121.612L169.473,121.484L169.598,121.357L169.725,121.229L169.893,121.165L169.976,121.101L170.186,121.101L170.271,121.165L170.354,121.165L170.481,121.229L170.564,121.293L170.523,123.08L170.439,124.867L170.313,126.59L170.229,128.379L170.103,130.165L169.935,131.952L169.766,133.676L169.556,135.464L169.389,137.25L169.178,138.974L168.927,140.762L168.675,142.485L168.423,144.208L168.129,145.931L167.835,147.655L167.542,149.378L167.499,148.613L167.415,147.847L167.373,147.081L167.331,146.314L167.331,142.421L167.373,141.591L167.415,140.762L167.457,139.995L167.542,138.336L167.667,136.677L167.793,135.016L167.961,133.357L168.087,131.697L168.255,130.038L168.381,128.379L168.549,126.718L168.633,125.059L168.717,123.399Z"/><path d="M41.56,113.171L41.056,113.339L40.51,113.506L40.006,113.675L39.46,113.801L38.914,113.927L38.369,114.053L37.823,114.179L37.276,114.304L36.731,114.389L36.227,114.472L35.681,114.557L35.135,114.641L34.127,114.767L33.119,114.851L33.161,114.724L33.246,114.599L33.329,114.431L33.456,114.304L33.624,114.179L33.792,114.011L34.001,113.884L34.212,113.759L34.464,113.633L34.757,113.506L35.009,113.381L35.303,113.255L35.639,113.171L35.933,113.087L36.268,112.961L36.605,112.877L36.941,112.835L37.319,112.751L37.654,112.709L37.991,112.667L38.327,112.625L38.704,112.583L39.377,112.583L39.67,112.625L40.006,112.625L40.3,112.709L40.594,112.751L40.846,112.835L41.098,112.919L41.35,113.045L41.56,113.171Z"/><path d="M41.098,115.27L41.392,115.27L41.728,115.187L42.064,115.144L42.442,115.06L42.82,115.019L43.282,114.935L43.702,114.892L44.121,114.809L45.255,114.809L45.507,114.851L45.717,114.892L45.969,114.935L46.389,115.019L46.599,115.102L46.809,115.187L47.019,115.312L47.229,115.438L47.439,115.564L47.649,115.732L47.523,115.775L47.355,115.817L47.229,115.858L47.061,115.9L46.641,115.942L46.221,116.026L45.171,116.152L43.995,116.32L43.365,116.362L42.022,116.614L41.35,116.783L41.014,116.866L40.678,116.95L40.3,117.076L39.965,117.202L39.67,117.328L39.335,117.454L38.999,117.58L38.662,117.748L38.536,117.664L38.369,117.58L38.284,117.496L38.201,117.412L38.116,117.328L38.074,117.244L38.032,117.16L38.032,116.992L38.116,116.824L38.159,116.74L38.411,116.488L38.536,116.405L38.789,116.236L39.082,116.068L39.377,115.942L39.712,115.775L40.048,115.648L40.426,115.522L40.762,115.397L41.098,115.27Z"/><path d="M50.84,117.874L50.966,117.874L51.092,117.916L51.176,117.958L51.302,118L51.47,118.168L51.596,118.294L51.764,118.462L51.932,118.588L52.016,118.672L52.184,118.756L52.31,118.839L51.722,118.966L51.134,119.134L50.546,119.259L49.958,119.385L49.371,119.512L48.741,119.637L48.153,119.764L47.523,119.89L46.347,120.057L45.717,120.142L45.129,120.225L44.541,120.31L43.953,120.393L43.408,120.478L42.82,120.52L42.904,120.183L43.029,119.89L43.155,119.637L43.324,119.385L43.492,119.176L43.702,118.966L43.87,118.839L44.121,118.672L44.331,118.546L44.583,118.419L44.835,118.336L45.129,118.252L45.381,118.21L45.676,118.126L45.969,118.084L46.263,118.084L46.892,118.042L47.48,118L48.11,118.042L49.286,118.042L49.832,118L50.126,118L50.378,117.958L50.589,117.916L50.84,117.874Z"/><path d="M56.677,120.73L57.181,120.855L57.391,120.898L57.726,120.94L58.063,120.981L58.231,121.023L58.357,121.065L58.483,121.108L58.609,121.191L58.734,121.276L58.819,121.401L58.861,121.443L58.861,121.528L58.944,121.695L58.231,121.779L57.475,121.863L56.719,121.989L55.963,122.116L55.165,122.283L54.326,122.451L53.528,122.619L52.688,122.787L51.848,122.997L51.05,123.207L50.211,123.417L49.371,123.627L48.53,123.837L47.733,124.047L46.137,124.467L46.053,124.383L45.927,124.299L45.885,124.172L45.801,124.089L45.801,124.005L45.759,123.879L45.717,123.795L45.717,123.627L45.759,123.501L45.759,123.417L45.801,123.332L45.843,123.249L45.885,123.123L45.969,123.039L46.011,122.955L46.515,122.451L46.683,122.325L46.892,122.157L47.061,122.073L47.229,121.989L47.439,121.905L47.985,121.737L48.53,121.611L49.118,121.485L49.664,121.359L50.252,121.276L50.84,121.191L51.47,121.108L52.058,121.065L53.276,120.94L54.409,120.855L55.585,120.771L56.677,120.73Z"/><path d="M20.637,102.106L20.22,102.245L19.769,102.384L19.351,102.523L18.9,102.627L18.449,102.732L17.997,102.836L17.546,102.94L17.095,103.044L16.643,103.113L16.226,103.183L15.774,103.252L15.323,103.321L14.489,103.426L13.656,103.495L13.691,103.391L13.76,103.287L13.829,103.148L13.934,103.044L14.073,102.94L14.212,102.801L14.386,102.697L14.559,102.592L14.767,102.488L15.01,102.384L15.219,102.28L15.462,102.176L15.74,102.106L15.983,102.037L16.261,101.933L16.538,101.864L16.816,101.828L17.129,101.759L17.407,101.724L17.684,101.69L17.963,101.655L18.275,101.62L18.831,101.62L19.074,101.655L19.351,101.655L19.595,101.724L19.838,101.759L20.255,101.898L20.463,102.002L20.637,102.106Z"/><path d="M20.255,103.843L20.498,103.843L20.776,103.773L21.053,103.739L21.366,103.669L21.678,103.634L22.06,103.565L22.408,103.531L22.755,103.461L23.693,103.461L23.901,103.495L24.075,103.531L24.283,103.565L24.457,103.6L24.631,103.634L24.805,103.704L24.978,103.773L25.152,103.878L25.325,103.981L25.499,104.086L25.673,104.225L25.568,104.26L25.429,104.294L25.325,104.329L25.186,104.364L24.839,104.399L24.492,104.468L23.624,104.572L22.651,104.711L22.13,104.746L21.574,104.85L21.018,104.954L19.908,105.232L19.595,105.336L19.317,105.44L19.074,105.545L18.796,105.648L18.518,105.753L18.241,105.892L18.136,105.822L17.997,105.753L17.789,105.545L17.754,105.475L17.719,105.406L17.719,105.267L17.754,105.198L17.789,105.128L17.823,105.059L18.032,104.85L18.136,104.78L18.344,104.641L18.588,104.502L18.831,104.399L19.109,104.26L19.386,104.155L19.699,104.051L19.977,103.947L20.255,103.843Z"/><path d="M28.312,105.996L28.416,105.996L28.52,106.031L28.589,106.066L28.694,106.1L29.076,106.482L29.215,106.586L29.284,106.656L29.354,106.691L29.423,106.726L29.527,106.795L29.041,106.899L28.555,107.038L28.069,107.142L27.582,107.246L27.096,107.35L26.575,107.454L26.089,107.559L25.568,107.663L25.082,107.733L24.596,107.802L24.075,107.872L23.103,108.01L22.616,108.08L22.165,108.149L21.678,108.184L21.748,107.906L21.852,107.663L21.957,107.454L22.096,107.246L22.234,107.073L22.408,106.899L22.546,106.795L22.755,106.656L22.929,106.552L23.137,106.447L23.345,106.378L23.589,106.308L23.797,106.274L24.04,106.205L24.283,106.169L24.526,106.169L25.047,106.135L25.533,106.1L26.054,106.135L27.027,106.135L27.479,106.1L27.721,106.1L27.93,106.066L28.103,106.031L28.312,105.996Z"/><path d="M33.139,108.357L33.278,108.393L33.417,108.427L33.556,108.462L33.73,108.496L34.008,108.531L34.285,108.566L34.424,108.601L34.529,108.635L34.632,108.67L34.737,108.74L34.841,108.809L34.91,108.913L34.945,108.948L34.945,109.017L34.98,109.087L35.015,109.156L34.424,109.226L33.799,109.295L33.174,109.4L32.549,109.503L31.889,109.642L31.194,109.781L30.535,109.921L29.84,110.06L29.146,110.233L28.486,110.407L27.791,110.58L27.096,110.754L26.401,110.928L25.742,111.101L25.082,111.275L24.422,111.448L24.353,111.379L24.248,111.31L24.213,111.205L24.144,111.136L24.144,111.067L24.11,110.962L24.075,110.893L24.075,110.754L24.11,110.649L24.11,110.58L24.144,110.51L24.179,110.441L24.213,110.337L24.283,110.268L24.318,110.198L24.596,109.921L24.734,109.781L24.873,109.677L25.047,109.538L25.325,109.4L25.499,109.33L25.95,109.191L26.401,109.087L26.888,108.982L27.34,108.879L28.312,108.74L28.833,108.67L29.319,108.635L30.326,108.531L31.264,108.462L32.236,108.393L33.139,108.357Z"/><path d="M85.331,99.399C83.615,101.506 80.961,101.818 82.835,97.37C83.849,94.794 86.034,90.19 88.766,85.274C95.398,84.572 104.529,83.167 107.105,82.308C110.304,81.137 108.275,80.669 107.182,80.669C103.515,80.669 99.456,81.372 95.71,81.84C93.837,82.152 92.043,82.386 90.326,82.543C95.008,74.505 100.783,66.622 104.919,66.622C105.231,66.622 105.622,66.779 105.934,67.013C106.246,64.593 102.344,63.501 101.329,63.501C97.271,63.501 91.808,70.212 91.262,72.788C91.496,73.256 91.808,74.036 90.794,75.987C90.092,77.314 88.766,79.811 87.205,82.62L86.971,82.62C86.424,82.62 86.112,81.137 84.864,81.137C83.77,81.137 80.493,82.152 80.493,83.713C80.493,84.962 81.664,85.742 82.522,85.742C83.069,85.742 84.395,85.664 85.644,85.508C82.132,92.297 78.23,100.257 78.699,103.301C78.776,103.847 81.274,104.237 81.742,104.237C83.849,104.237 85.956,100.491 87.205,98.774C87.283,98.696 88.687,97.135 88.141,96.745C87.517,96.667 86.424,97.994 85.331,99.399ZM117.405,71.07C115.689,68.495 118.03,65.062 120.526,62.643C121.932,61.238 123.492,60.38 124.273,59.599C125.833,58.038 123.882,56.79 122.087,57.18C121.463,57.258 119.98,58.038 118.576,59.599C108.04,59.287 101.251,56.087 89.233,56.867C79.167,57.57 69.724,61.238 68.085,69.041C68.007,69.432 68.007,70.212 68.007,70.29C66.29,74.895 71.285,78.484 73.938,79.265C74.874,79.577 75.577,79.031 74.64,78.328C73.08,77.158 69.021,75.675 69.958,71.851C71.362,65.374 79.713,61.238 89.077,59.989C98.91,58.507 107.963,61.16 117.639,60.77C117.249,61.238 116.937,61.862 116.547,62.409C114.908,65.53 115.064,70.447 116.001,71.383C116.937,72.553 117.795,71.695 117.405,71.07Z" style="fill-rule:nonzero;"/><path d="M122.182,79.752L122.928,79.522L124.097,79.22L125.31,78.872L126.523,78.484L127.734,78.094L128.991,77.661L130.246,77.227L131.545,76.751L132.239,76.448L132.931,76.188L133.624,75.885L134.361,75.582L135.053,75.278L135.79,74.932L136.569,74.586L137.306,74.24L138.041,73.849L138.821,73.503L139.556,73.07L140.337,72.68L141.115,72.247L141.851,71.771L142.632,71.295L143.411,70.818L144.146,70.342L144.927,69.822L145.706,69.303L146.442,68.739L147.178,68.177L147.914,67.57L148.651,66.965L149.387,66.357L150.123,65.708L150.816,65.058L151.509,64.367L152.201,63.673L152.894,62.937L153.544,62.2L154.194,61.464L154.844,60.642L153.891,60.252L152.894,59.862L151.856,59.516L150.859,59.213L149.821,58.91L148.737,58.607L147.699,58.346L146.615,58.087L145.533,57.87L144.407,57.697L143.324,57.481L142.198,57.307L141.073,57.177L139.947,57.004L138.821,56.874L137.695,56.745L135.443,56.485L133.148,56.268L130.896,56.052L128.644,55.792L127.518,55.705L126.391,55.575L125.266,55.445L124.184,55.272L123.101,55.142L122.018,54.969L120.936,54.795L119.897,54.623L120.936,54.492L122.062,54.406L123.145,54.319L124.227,54.275L125.31,54.233L126.391,54.233L127.518,54.189L128.601,54.189L129.727,54.233L130.809,54.233L131.892,54.275L133.018,54.319L134.1,54.363L135.226,54.449L136.31,54.536L137.435,54.623L139.644,54.795L141.808,55.011L144.018,55.272L146.225,55.488L148.434,55.748L150.599,56.052L152.807,56.312L154.974,56.615L155.277,56.701L155.622,56.787L155.926,56.874L156.273,56.96L156.966,57.133L157.659,57.265L157.961,57.394L158.308,57.481L158.437,57.567L158.568,57.654L158.741,57.697L158.871,57.783L159,57.87L159.217,58.087L159.348,58.216L159.434,58.346L159.52,58.477L159.607,58.65L159.694,58.779L159.651,59.082L159.563,59.342L159.477,59.646L159.348,59.905L159.26,60.165L159.131,60.382L158.957,60.642L158.828,60.901L158.654,61.117L158.481,61.335L158.308,61.594L158.135,61.811L157.744,62.244L157.312,62.677L156.403,63.543L155.492,64.367L155.017,64.799L154.583,65.232L154.15,65.708L153.76,66.141L152.721,67.137L151.682,68.134L150.643,69L149.561,69.91L148.477,70.731L147.352,71.555L146.225,72.333L145.056,73.027L143.886,73.764L142.718,74.413L141.505,75.062L140.337,75.668L139.081,76.231L137.868,76.751L136.612,77.271L135.357,77.789L134.058,78.223L132.758,78.657L131.503,79.046L130.159,79.436L128.88,79.777C113.742,84.016 109.931,88.815 109.931,88.815L109.941,88.82C108.382,90.637 109.083,92.16 112.151,93.618C119.642,97.131 134.938,100.486 134.938,108.681C134.938,110.866 133.69,113.129 131.349,115.47C123.935,122.572 110.59,127.644 101.381,127.644C94.124,127.644 89.831,125.225 89.831,120.621C89.831,115.861 93.03,111.724 97.401,108.915C101.381,106.184 106.375,104.623 110.512,104.623C112.931,104.623 112.151,105.794 110.356,105.794C106.61,105.794 101.537,107.822 98.025,111.022C91.08,117.265 92.718,124.055 102.864,124.055C108.17,124.055 114.258,122.572 116.599,121.792C122.296,119.919 128.93,116.64 131.192,113.129C139.075,101.111 105.439,101.813 105.439,91.746C105.439,85.702 114.452,81.633 122.182,79.752Z" style="fill-rule:nonzero;"/><path d="M128.563,84.865L130.546,84.902L132.814,84.986L135.081,85.07L137.391,85.197L139.7,85.28L142.052,85.448L144.446,85.575L146.797,86.12L149.191,86.665L151.585,87.212L153.978,87.8L156.371,88.429L158.764,89.059L159.983,89.395L161.158,89.732L162.334,90.067L163.51,90.403L164.728,90.781L165.861,91.158L167.037,91.537L168.213,91.956L169.389,92.334L170.564,92.797L171.699,93.217L172.832,93.679L173.966,94.141L175.099,94.602L176.234,95.106L177.367,95.611L178.459,96.156L179.551,96.702L180.685,97.248L181.735,97.836L183.456,101.783L182.364,102.077L181.272,102.371L180.181,102.623L179.047,102.875L177.956,103.127L176.822,103.337L175.729,103.546L174.596,103.715L173.462,103.883L172.328,104.051L171.194,104.177L170.103,104.303L168.927,104.428L167.793,104.554L166.701,104.681L165.526,104.764L163.258,104.974L160.991,105.142L158.681,105.31L156.413,105.52L154.104,105.689L151.836,105.898L150.702,106.067L149.569,106.192L148.435,106.318L147.301,106.486L147.175,106.78L147.049,107.074L146.965,107.41L146.839,107.746L146.797,108.082L146.713,108.418L146.713,108.754L146.671,109.131L146.629,109.804L146.587,110.559L146.587,111.945L146.545,112.323L146.545,112.617L146.503,112.995L146.461,113.289L146.42,113.624L146.335,113.961L146.252,114.254L146.167,114.549L146.084,114.8L145.915,115.095L145.789,115.346L145.622,115.598L145.412,115.808L145.159,116.018L144.908,116.228L144.656,116.396L145.159,105.31L146.209,104.974L147.259,104.681L148.393,104.428L149.484,104.177L150.66,103.966L151.795,103.756L153.012,103.546L154.188,103.379L155.405,103.211L156.623,103.085L157.841,102.958L159.059,102.833L161.494,102.581L163.888,102.371L166.197,102.161L168.423,101.951L169.515,101.825L170.564,101.699L171.614,101.573L172.58,101.447L173.503,101.279L174.386,101.112L175.267,100.944L176.065,100.734L176.78,100.523L177.493,100.272L178.081,100.019L178.669,99.768L177.493,99.18L176.275,98.592L175.099,98.046L173.882,97.5L172.706,96.996L171.489,96.492L170.271,95.988L169.053,95.526L167.835,95.064L166.617,94.645L165.358,94.183L164.14,93.805L162.88,93.385L161.621,93.007L160.36,92.629L159.101,92.251L157.841,91.915L156.581,91.579L155.28,91.243L154.02,90.908L152.718,90.613L151.417,90.32L150.115,89.983L148.813,89.732L146.167,89.144L143.522,88.597L140.834,88.094L138.147,87.59L138.106,87.586L137.987,87.521C137.987,87.521 133.834,85.989 128.563,84.865Z"/></g></svg>
