<?xml version="1.0" encoding="UTF-8" standalone="yes"?>
<svg xml:space="preserve" fill-rule="evenodd" width="100%" height="100%" stroke-linejoin="round" stroke-miterlimit="2" version="1.2" viewBox="0 0 192 192" baseProfile="tiny-ps" xmlns="http://www.w3.org/2000/svg">
  <title>bimi-svg-tiny-12-ps</title>
  <path d="m18.05 96.954 1.008.462 1.049.462 1.008.462 1.05.462 1.008.504 1.008.503 1.008.505 1.007.545 1.008.546 1.007.546.966.546 1.008.546.966.588 1.008.587.965.546.966.63.967.588.966.588.923.63.966.588 1.848 1.26 1.847 1.217 1.764 1.26 1.763 1.218 1.723 1.26 1.679 1.217-1.89-.965-1.847-1.008-3.695-2.016-1.848-1.007-1.806-1.008-1.847-1.008-1.806-1.008-1.806-1.008-1.848-1.05-1.805-1.008-1.806-1.007-1.806-1.05-1.848-1.008-1.805-1.05-1.847-1.008-.043-.083v-.085l-.042-.041-.041-.084-.127-.126-.083-.126-.295-.211-.252-.167-.125-.126-.084-.084-.084-.126-.085-.126v-.084l-.041-.042v-.252l.041-.084.042-.084.043-.126Zm19.61-12.135h.965v.966l-.041.209v.252l-.042.252-.042.21-.126.504-.126.462-.336.923-.378.925-.378.923-.168.463-.168.461-.168.462-.168.462 1.344.714 1.344.713 1.386.673 1.343.713 2.687 1.344 2.688 1.344 2.73 1.302 2.687 1.26 2.729 1.301 2.688 1.26 2.73 1.259 2.729 1.261 2.729 1.301 2.73 1.26 2.729 1.301 2.73 1.303 2.771 1.343 2.729 1.344.253.252.504.42.209.21.085.126.084.126.041.126.043.168.042.126v.377l-.085.211-3.023-1.428-3.023-1.428-3.024-1.385-2.981-1.386-3.023-1.386-2.94-1.344-2.939-1.385-2.982-1.386-2.897-1.428-2.939-1.428-1.428-.713-1.471-.715-1.468-.756-1.428-.755-1.47-.756-1.428-.756-1.47-.798-1.428-.755-1.427-.798-1.428-.798-1.47-.84-1.427-.84.335-.504.336-.462.295-.462.251-.504.252-.462.21-.461.168-.42.21-.463.336-.923.336-.882.21-.462.21-.42.21-.462.252-.461Zm1.836-1.487 1.243.221 1.144.19 1.047.19.982.158.948.19.883.158.85.19.851.158.85.19.85.189.851.19.916.253.948.253 1.046.285 1.079.284 1.211.348 1.145.506 1.21.538 1.276.569 1.308.569.686.316.654.317.687.316.654.316.654.348.655.316.654.348.654.38.622.379.621.347.622.412.588.38.556.41.556.412.523.411.491.442.458.443.458.475.392.442.36.506.359.474.295.506.261.506.197.506-.916-.79-.916-.759-.916-.759-.981-.696-.948-.695-.981-.633-.981-.633-1.014-.6-1.014-.601-1.014-.537-1.047-.538-2.092-1.012-1.08-.475-1.079-.442-1.113-.411-1.079-.411-1.112-.412-1.112-.379-1.145-.379-1.111-.316-1.145-.348-1.145-.317-1.177-.317-1.145-.316-1.178-.284-1.144-.284-1.21-.254-1.178-.284-1.177-.253-1.177-.253-1.211-.222.066-.094.066-.064.032-.063.065-.032.066-.063.065-.031.033-.032.065-.032.131-.031.197-.064.195-.094.262-.127Zm9.67-8.759 2.561-2.352 2.562-2.352 2.519-2.352 2.562-2.393 2.519-2.393 2.52-2.394 2.52-2.394 2.561-2.393 2.562-2.394 2.561-2.351 1.259-1.176 1.303-1.134 1.301-1.133 1.302-1.176 1.302-1.134 1.301-1.092 1.303-1.134 1.301-1.092 1.343-1.091 1.344-1.092 1.344-1.05 1.344-1.05-1.638 1.89-1.638 1.848-1.637 1.763-1.595 1.722-1.596 1.68-1.554 1.638-1.554 1.595-1.554 1.554-1.511 1.512-1.47 1.427-1.512 1.427-1.427 1.386-1.428 1.345-1.428 1.343-1.386 1.26-1.343 1.26-2.646 2.393-2.52 2.268-2.394 2.183-2.267 2.058-1.092 1.008-1.049 1.007-1.05.967-.966.966-.965.923-.883.924-.881.924-.84.924-3.275-.21.041-.168.042-.127.085-.168.083-.125.085-.126.084-.126.125-.126.084-.168.252-.21.252-.252.252-.21.294-.253.588-.461.588-.42.252-.252.294-.21.252-.21.252-.251Zm-36.953 30.663 3.605 2.043 3.484 2.162 3.725 2.043 3.725 2.163 3.845 2.163 3.725 2.163 3.845 2.283 3.725 2.283 1.803 1.081 1.802 1.202 1.803 1.201 1.802 1.202 1.682 1.202 1.682 1.201 1.682 1.322 1.563 1.202 1.682 1.321 1.562 1.202 1.442 1.322 1.442 1.322 1.322 1.321 1.321 1.442 1.202 1.322 1.202 1.322-.841-.241-.842-.36-1.081-.48-1.201-.602-1.202-.6-1.202-.721-1.441-.721-1.442-.842-3.124-1.922-3.486-2.163-3.605-2.403-3.965-2.643-3.965-2.644-4.206-2.883-4.326-2.885-4.326-3.004-4.445-3.004-4.446-3.124-4.446-3.004-4.326-2.884v-.601l.12-.24.241-.12h.12l.24-.12h.24l.361.12.481.12.6.121.481.24.361.12Zm-3.669 6.772 1.094.591 1.204.676 1.422.843 1.531.927 1.532.971 1.749 1.053 1.751 1.14 1.859 1.18 1.969 1.264 1.969 1.308 2.078 1.391 2.079 1.349 4.266 2.866 4.376 2.951 4.266 2.909 4.156 2.866 4.048 2.824 3.829 2.614 3.391 2.402 3.062 2.108 2.516 1.812 1.969 1.391-.109.168-.219.083-.109.084-.219.042-.219.041-.219-.043h-.218l-.219-.001-.328-.085-.328-.085-.219-.084-.328-.127-.329-.127-.328-.127-.327-.169-.439-.21-.655-.338-.657-.338-.766-.422-.656-.38-1.203-.759-1.094-.674-1.422-.886-1.422-.927-1.422-.97-1.422-.927-2.953-1.94-2.845-1.939-2.844-1.981-2.844-1.939-2.735-1.939-2.625-1.854-24.394-18.583Zm46.416 5.018 1.05.588 1.093.546 1.091.545 1.092.547 2.225 1.049 2.184 1.05 2.226 1.05 2.183 1.05 2.225 1.05 4.368 2.183 2.183 1.092 1.051.546 1.091.588 1.05.588 1.05.588 1.049.588 1.05.588 1.05.629 1.008.63 1.007.63 1.008.672 1.008.672.966.672-.168.125-.168.127-.168.084-.168.084-.126.042-.168.041h-.63l-.336-.083-.293-.084-.337-.126-.587-.336-.631-.294-.335-.126-.504-.126-.168-.042-.126-.042h-.21l-1.806-1.05-1.889-1.008-1.848-1.05-1.932-1.007-3.779-2.016-1.932-1.05-1.889-1.008-.924-.546-.966-.503-.924-.547-.923-.545-.924-.546-.924-.546-.882-.546-.924-.546-.881-.588-.84-.588-.882-.588-.84-.587-.84-.631-.84-.588-.798-.671-.798-.63Zm8.525 8.02-.504.168-.546.169-.504.168-.545.125-.546.126-.547.127-.545.125-.546.126-.546.084-.504.085-.546.083-.545.084-1.008.126-1.008.085.042-.127.083-.126.085-.167.125-.127.168-.126.169-.167.419-.253.252-.125.295-.126.251-.127.294-.125.336-.085.294-.083.336-.127.335-.083.337-.042.378-.085.336-.041.335-.042.337-.042.378-.042h.671l.295.042h.335l.294.084.294.041.252.085.252.084.252.126.21.125Zm-.462 2.101h.294l.336-.085.336-.042.378-.084.378-.042.461-.084.42-.042.42-.084h1.134l.252.043.21.041.252.042.21.042.211.042.209.084.21.084.42.253.21.125.21.168-.126.042-.168.042-.126.043-.168.041-.42.042-.42.084-1.049.126-1.176.168-.63.042-.673.126-.671.126-.672.168-.336.084-.336.084-.378.126-.336.126-.293.126-.337.126-.336.126-.335.168-.126-.085-.169-.083-.251-.252-.042-.084-.042-.084v-.168l.042-.084.042-.084.041-.084.085-.084.084-.084.083-.084.127-.084.251-.168.295-.168.293-.126.337-.168.336-.126.377-.126.336-.126.336-.125Zm9.742 2.602h.126l.126.043.084.042.126.042.168.168.126.125.168.168.168.127.084.083.084.042.084.043.126.083-.588.127-.588.167-.588.126-.588.127-.588.125-.629.126-.588.127-.63.125-.588.085-.588.083-.63.084-.588.084-.588.084-.588.084-.545.084-.588.042.083-.335.127-.295.126-.252.168-.251.167-.21.21-.21.168-.127.252-.168.21-.125.253-.126.251-.084.294-.085.253-.041.293-.084.294-.042h.294l.63-.042.588-.042.63.042h1.176l.545-.042h.295l.251-.042.21-.042.252-.043ZM50.896 81.244l1.664.257 1.664.215 1.628.171 1.593.21 1.591.167 1.556.207 1.592.168 1.555.206 1.556.165 1.556.249 1.556.207 1.555.248 1.556.249 1.592.252 1.591.335 1.665.341-.218.193-.144.199-.108.075-.073.037-.073.078-.108.033-.072.037-.108.033-.073.036-.109.034-.253.021-.253-.019-.615-.006-.869-.069-.506.002-.615-.007-.651.033-.76.024-1.483-.243-1.447-.241-1.447-.198-1.448-.198-1.447-.198-1.411-.237-1.447-.198-1.411-.238-1.411-.279-1.411-.237-.688-.139-.687-.18-.687-.138-.687-.18-.688-.181-.687-.18-.688-.18-.687-.222-.651-.177-.688-.265-.651-.219-.687-.264 2.677.211Zm27.706 51.361.168.043.168.041.168.042.21.042.336.042.335.042.169.042.126.042.125.042.127.084.126.084.084.126.041.042v.084l.042.084.043.084-.714.084-.756.084-.756.126-.756.126-.798.168-.84.168-.798.168-.839.167-.84.21-.798.21-.84.21-.84.211-.839.21-1.596.42-.798.21-.084-.085-.126-.083-.042-.127-.083-.083v-.085l-.043-.125-.042-.085v-.167l.042-.126v-.085l.043-.083.041-.084.042-.126.084-.084.042-.084.168-.169.168-.167.168-.168.168-.126.21-.168.168-.084.168-.084.21-.084.546-.168.546-.126.588-.126.546-.126.587-.084.588-.084.63-.084.588-.042 1.218-.126 1.134-.084 1.176-.083 1.091-.043Zm1.092 16.965 29.646-2.141 1.428-.252 1.47-.253 1.469-.252 1.428-.21 2.94-.419 2.939-.42 2.982-.42 2.939-.378 1.469-.21 1.47-.252 1.47-.21 1.47-.252 1.428-.294 1.469-.252 1.428-.294 1.47-.336 1.427-.336 1.428-.378 1.386-.42 1.386-.42 1.385-.461 1.386-.505 1.386-.545 1.343-.588 1.344-.588 1.302-.672 1.302-.714 1.301-.755.084-.883.126-.923.085-.882.084-.924.125-.881.126-.883.127-.881.168-.84.167-.882.168-.882.21-.84.21-.84.126-.378.126-.42.126-.419.168-.42.126-.42.168-.378.168-.378.168-.42.042.504v.462l.042.462v1.47l-.042 1.007-.042 1.008-.042 1.008-.084 1.008-.084 1.008-.042 1.049-.084 1.008-.042 1.05-.042 1.008-.042 1.049v2.016l.042.504v.504l-.84.503-.839.463-.84.42-.883.42-.881.42-.882.378-.882.378-.882.335-.923.336-.924.337-.924.293-.924.294-.923.252-.925.252-.966.252-.923.252-.966.252-.923.21-.967.21-.966.21-1.889.42-1.889.378-1.933.378-1.889.42-1.889.377-1.848.42-2.687.336-2.772.378-2.898.378-2.981.378-3.066.378-3.107.378-1.596.168-1.596.168-1.637.168-1.595.168-1.638.126-1.68.168-1.638.084-1.68.126-1.679.083-1.68.085-1.679.042-1.68.041h-3.401l-1.68-.041-1.679-.042-1.681-.085-1.679-.083-3.359-.337v-.083l.042-.084.041-.084.042-.084.042-.042.085-.042.041-.084.085-.042.125-.084.337-.084.209-.042.378-.043.378-.041.21-.042.21-.042.168-.042.168-.084Zm52.095-110.282-1.18.984-1.18 1.022-1.181 1.023-1.18 1.063-1.181 1.023-1.18 1.063-1.22 1.062-1.18 1.062-1.181 1.063-1.219 1.023-1.221 1.023-1.219 1.023-1.22 1.023-1.259 1.024-1.22.944-1.259.944-.236.157-.276.118-.236.158-.197.118-.236.158-.196.157-.237.118-.196.118-.079.039-.118.039-.079.04h-.394l-.078-.04h-.079l-.118-.078-.078-.04-.079-.078-.118-.079-.079-.118-.078-.118-.119-.158 1.063-1.023 1.062-1.023 1.063-.983 1.023-.984 1.062-.944 1.023-.944 1.023-.905 1.023-.946 1.968-1.81.983-.905.984-.944.984-.905.945-.944.944-.944.944-.984-1.023-.157-1.062-.119-1.063-.118-1.062-.079-1.023-.078-1.062-.118-1.063-.079-1.063-.078-2.085-.118-2.125-.079-2.125-.118-2.085-.079-2.125-.079-2.085-.118-2.126-.079-2.124-.117-1.062-.04-1.063-.078-2.125-.158-1.062-.078-1.062-.119-1.024-.118-1.062-.118 1.456-.196 1.535-.158 1.573-.158 1.613-.117 1.653-.079 3.384-.079h5.155l1.731.079 1.692.039 1.692.079 1.653.078 1.614.08 1.612.118 2.991.196 2.754.236 2.44.197 2.085.158 1.692.157 1.181.079h.669l.118-.04-.04-.039Zm45.914 74.883.084-1.26.084-.588.042-.63.084-.63.042-.63.084-.588.084-.588.084-.629.126-.588.126-.588.126-.588.21-.587.168-.588.126-.295.084-.293.126-.252.126-.295-.042.715-.042.713v.756l.042.714v.714l.042.756.042.714.042.714.042.755.042.714v.756l-.042.714v.378l-.042.336v.377l-.042.378-.084.337-.042.378-.042.335-.084.378-.546.294-.546.336-.588.294-.546.252-.588.294-.588.21-.587.252-.588.209-.588.211-.63.167-.588.21-.629.127-.63.168-.588.125-.63.127-.63.084-.631.084-.629.042-.63.083-.63.043h-2.477l-.63-.043-.588-.042-.63-.083-.588-.084-.63-.084-.588-.127-.588-.125-.587-.168.503-.21.547-.168.503-.21.546-.168.547-.126.545-.126.546-.126.588-.084 1.133-.21 1.176-.168 1.176-.167 1.176-.169.587-.084.588-.084.588-.084.588-.084.547-.126.587-.168.546-.126.588-.168.546-.168.545-.21.505-.21.546-.21.504-.293.504-.295.462-.293.503-.336Zm-13.857 6.803 2.015.51-.083 2.171-.085 2.106-.084 2.043-.041 1.979v1.978l-.042 1.979v5.809l.042 1.914v1.916l.041 1.979.042 1.978v2.042l.042 2.043.043 2.17-.168.192-.127.191-.168.255-.21.192-.083.064h-.084l-.084.064h-.084l-.126-.064-.126-.064-.084-.064-.127-.128-.125-1.02-.085-1.022-.083-1.085-.042-1.021-.084-1.085-.042-1.022-.084-1.085-.043-1.021-.041-2.106-.042-2.107v-4.213l.042-2.106v-2.106l.041-2.107.043-2.043.084-4.085.042-2.043v-1.978Zm4.871 2.425.042-.191.042-.256.084-.255.042-.192.084-.255.084-.191.126-.255.084-.192.168-.128.125-.127.127-.128.168-.064.083-.064h.21l.085.064h.083l.127.064.083.064-.041 1.787-.084 1.787-.126 1.723-.084 1.789-.126 1.786-.168 1.787-.169 1.724-.21 1.788-.167 1.786-.211 1.724-.251 1.788-.252 1.723-.252 1.723-.294 1.723-.294 1.724-.293 1.723-.043-.765-.084-.766-.042-.766-.042-.767v-3.893l.042-.83.042-.829.042-.767.085-1.659.125-1.659.126-1.661.168-1.659.126-1.66.168-1.659.126-1.659.168-1.661.084-1.659.084-1.66ZM41.56 113.171l-.504.168-.546.167-.504.169-.546.126-.546.126-.545.126-.546.126-.547.125-.545.085-.504.083-.546.085-.546.084-1.008.126-1.008.084.042-.127.085-.125.083-.168.127-.127.168-.125.168-.168.209-.127.211-.125.252-.126.293-.127.252-.125.294-.126.336-.084.294-.084.335-.126.337-.084.336-.042.378-.084.335-.042.337-.042.336-.042.377-.042h.673l.293.042h.336l.294.084.294.042.252.084.252.084.252.126.21.126Zm-.462 2.099h.294l.336-.083.336-.043.378-.084.378-.041.462-.084.42-.043.419-.083h1.134l.252.042.21.041.252.043.42.084.21.083.21.085.21.125.21.126.21.126.21.168-.126.043-.168.042-.126.041-.168.042-.42.042-.42.084-1.05.126-1.176.168-.63.042-1.343.252-.672.169-.336.083-.336.084-.378.126-.335.126-.295.126-.335.126-.336.126-.337.168-.126-.084-.167-.084-.085-.084-.083-.084-.085-.084-.042-.084-.042-.084v-.168l.084-.168.043-.084.252-.252.125-.083.253-.169.293-.168.295-.126.335-.167.336-.127.378-.126.336-.125.336-.127Zm9.742 2.604h.126l.126.042.084.042.126.042.168.168.126.126.168.168.168.126.084.084.168.084.126.083-.588.127-.588.168-.588.125-.588.126-.587.127-.63.125-.588.127-.63.126-1.176.167-.63.085-.588.083-.588.085-.588.083-.545.085-.588.042.084-.337.125-.293.126-.253.169-.252.168-.209.21-.21.168-.127.251-.167.21-.126.252-.127.252-.083.294-.084.252-.042.295-.084.293-.042h.294l.629-.042.588-.042.63.042h1.176l.546-.042h.294l.252-.042.211-.042.251-.042Zm5.837 2.856.504.125.21.043.335.042.337.041.168.042.126.042.126.043.126.083.125.085.085.125.042.042v.085l.083.167-.713.084-.756.084-.756.126-.756.127-.798.167-.839.168-.798.168-.84.168-.84.21-.798.21-.839.21-.84.21-.841.21-.797.21-1.596.42-.084-.084-.126-.084-.042-.127-.084-.083v-.084l-.042-.126-.042-.084v-.168l.042-.126v-.084l.042-.085.042-.083.042-.126.084-.084.042-.084.504-.504.168-.126.209-.168.169-.084.168-.084.21-.084.546-.168.545-.126.588-.126.546-.126.588-.083.588-.085.63-.083.588-.043 1.218-.125 1.133-.085 1.176-.084 1.092-.041Zm-36.04-18.624-.417.139-.451.139-.418.139-.451.104-.451.105-.452.104-.451.104-.451.104-.452.069-.417.07-.452.069-.451.069-.834.105-.833.069.035-.104.069-.104.069-.139.105-.104.139-.104.139-.139.174-.104.173-.105.208-.104.243-.104.209-.104.243-.104.278-.07.243-.069.278-.104.277-.069.278-.036.313-.069.278-.035.277-.034.279-.035.312-.035h.556l.243.035h.277l.244.069.243.035.417.139.208.104.174.104Zm-.382 1.737h.243l.278-.07.277-.034.313-.07.312-.035.382-.069.348-.034.347-.07h.938l.208.034.174.036.208.034.174.035.174.034.174.07.173.069.174.105.173.103.174.105.174.139-.105.035-.139.034-.104.035-.139.035-.347.035-.347.069-.868.104-.973.139-.521.035-.556.104-.556.104-1.11.278-.313.104-.278.104-.243.105-.278.103-.278.105-.277.139-.105-.07-.139-.069-.208-.208-.035-.07-.035-.069v-.139l.035-.069.035-.07.034-.069.209-.209.104-.07.208-.139.244-.139.243-.103.278-.139.277-.105.313-.104.278-.104.278-.104Zm8.057 2.153h.104l.104.035.069.035.105.034.382.382.139.104.069.07.07.035.069.035.104.069-.486.104-.486.139-.486.104-.487.104-.486.104-.521.104-.486.105-.521.104-.486.07-.486.069-.521.07-.972.138-.487.07-.451.069-.487.035.07-.278.104-.243.105-.209.139-.208.138-.173.174-.174.138-.104.209-.139.174-.104.208-.105.208-.069.244-.07.208-.034.243-.069.243-.036h.243l.521-.034.486-.035.521.035h.973l.452-.035h.242l.209-.034.173-.035.209-.035Zm4.827 2.361.139.036.139.034.139.035.174.034.278.035.277.035.139.035.105.034.103.035.105.07.104.069.069.104.035.035v.069l.035.07.035.069-.591.07-.625.069-.625.105-.625.103-.66.139-.695.139-.659.14-.695.139-.694.173-.66.174-.695.173-.695.174-.695.174-.659.173-.66.174-.66.173-.069-.069-.105-.069-.035-.105-.069-.069v-.069l-.034-.105-.035-.069v-.139l.035-.105v-.069l.034-.07.035-.069.034-.104.07-.069.035-.07.278-.277.138-.14.139-.104.174-.139.278-.138.174-.07.451-.139.451-.104.487-.105.452-.103.972-.139.521-.07.486-.035 1.007-.104.938-.069.972-.069.903-.036Z"/>
  <path d="M85.331 99.399c-1.716 2.107-4.37 2.419-2.496-2.029 1.014-2.576 3.199-7.18 5.931-12.096 6.632-.702 15.763-2.107 18.339-2.966 3.199-1.171 1.17-1.639.077-1.639-3.667 0-7.726.703-11.472 1.171a73.596 73.596 0 0 1-5.384.703c4.682-8.038 10.457-15.921 14.593-15.921.312 0 .703.157 1.015.391.312-2.42-3.59-3.512-4.605-3.512-4.058 0-9.521 6.711-10.067 9.287.234.468.546 1.248-.468 3.199a366.487 366.487 0 0 1-3.589 6.633h-.234c-.547 0-.859-1.483-2.107-1.483-1.094 0-4.371 1.015-4.371 2.576 0 1.249 1.171 2.029 2.029 2.029.547 0 1.873-.078 3.122-.234-3.512 6.789-7.414 14.749-6.945 17.793.077.546 2.575.936 3.043.936 2.107 0 4.214-3.746 5.463-5.463.078-.078 1.482-1.639.936-2.029-.624-.078-1.717 1.249-2.81 2.654Zm32.074-28.329c-1.716-2.575.625-6.008 3.121-8.427 1.406-1.405 2.966-2.263 3.747-3.044 1.56-1.561-.391-2.809-2.186-2.419-.624.078-2.107.858-3.511 2.419-10.536-.312-17.325-3.512-29.343-2.732-10.066.703-19.509 4.371-21.148 12.174-.078.391-.078 1.171-.078 1.249-1.717 4.605 3.278 8.194 5.931 8.975.936.312 1.639-.234.702-.937-1.56-1.17-5.619-2.653-4.682-6.477 1.404-6.477 9.755-10.613 19.119-11.862 9.833-1.482 18.886 1.171 28.562.781-.39.468-.702 1.092-1.092 1.639-1.639 3.121-1.483 8.038-.546 8.974.936 1.17 1.794.312 1.404-.313Z" fill-rule="nonzero"/>
  <path d="m122.182 79.752.746-.23 1.169-.302 1.213-.348 1.213-.388 1.211-.39 1.257-.433 1.255-.434 1.299-.476.694-.303.692-.26.693-.303.737-.303.692-.304.737-.346.779-.346.737-.346.735-.391.78-.346.735-.433.781-.39.778-.433.736-.476.781-.476.779-.477.735-.476.781-.52.779-.519.736-.564.736-.562.736-.607.737-.605.736-.608.736-.649.693-.65.693-.691.692-.694.693-.736.65-.737.65-.736.65-.822-.953-.39-.997-.39-1.038-.346-.997-.303-1.038-.303-1.084-.303-1.038-.261-1.084-.259-1.082-.217-1.126-.173-1.083-.216-1.126-.174-1.125-.13-1.126-.173-1.126-.13-1.126-.129-2.252-.26-2.295-.217-2.252-.216-2.252-.26-1.126-.087-1.127-.13-1.125-.13-1.082-.173-1.083-.13-1.083-.173-1.082-.174-1.039-.172 1.039-.131 1.126-.086 1.083-.087 1.082-.044 1.083-.042h1.081l1.127-.044h1.083l1.126.044h1.082l1.083.042 1.126.044 1.082.044 1.126.086 1.084.087 1.125.087 2.209.172 2.164.216 2.21.261 2.207.216 2.209.26 2.165.304 2.208.26 2.167.303.303.086.345.086.304.087.347.086.693.173.693.132.302.129.347.087.129.086.131.087.173.043.13.086.129.087.217.217.131.129.086.13.086.131.087.173.087.129-.043.303-.088.26-.086.304-.129.259-.088.26-.129.217-.174.26-.129.259-.174.216-.173.218-.173.259-.173.217-.391.433-.432.433-.909.866-.911.824-.475.432-.434.433-.433.476-.39.433-1.039.996-1.039.997-1.039.866-1.082.91-1.084.821-1.125.824-1.127.778-1.169.694-1.17.737-1.168.649-1.213.649-1.168.606-1.256.563-1.213.52-1.256.52-1.255.518-1.299.434-1.3.434-1.255.389-1.344.39-1.279.341c-15.138 4.239-18.949 9.038-18.949 9.038l.01.005c-1.559 1.817-.858 3.34 2.21 4.798 7.491 3.513 22.787 6.868 22.787 15.063 0 2.185-1.248 4.448-3.589 6.789-7.414 7.102-20.759 12.174-29.968 12.174-7.257 0-11.55-2.419-11.55-7.023 0-4.76 3.199-8.897 7.57-11.706 3.98-2.731 8.974-4.292 13.111-4.292 2.419 0 1.639 1.171-.156 1.171-3.746 0-8.819 2.028-12.331 5.228-6.945 6.243-5.307 13.033 4.839 13.033 5.306 0 11.394-1.483 13.735-2.263 5.697-1.873 12.331-5.152 14.593-8.663 7.883-12.018-25.753-11.316-25.753-21.383 0-6.044 9.013-10.113 16.743-11.994Z" fill-rule="nonzero"/>
  <path d="m128.563 84.865 1.983.037 2.268.084 2.267.084 2.31.127 2.309.083 2.352.168 2.394.127 2.351.545 2.394.545 2.394.547 2.393.588 2.393.629 2.393.63 1.219.336 1.175.337 1.176.335 1.176.336 1.218.378 1.133.377 1.176.379 1.176.419 1.176.378 1.175.463 1.135.42 1.133.462 1.134.462 1.133.461 1.135.504 1.133.505 1.092.545 1.092.546 1.134.546 1.05.588 1.721 3.947-1.092.294-1.092.294-1.091.252-1.134.252-1.091.252-1.134.21-1.093.209-1.133.169-1.134.168-1.134.168-1.134.126-1.091.126-1.176.125-1.134.126-1.092.127-1.175.083-2.268.21-2.267.168-2.31.168-2.268.21-2.309.169-2.268.209-1.134.169-1.133.125-1.134.126-1.134.168-.126.294-.126.294-.084.336-.126.336-.042.336-.084.336v.336l-.042.377-.042.673-.042.755v1.386l-.042.378v.294l-.042.378-.042.294-.041.335-.085.337-.083.293-.085.295-.083.251-.169.295-.126.251-.167.252-.21.21-.253.21-.251.21-.252.168.503-11.086 1.05-.336 1.05-.293 1.134-.253 1.091-.251 1.176-.211 1.135-.21 1.217-.21 1.176-.167 1.217-.168 1.218-.126 1.218-.127 1.218-.125 2.435-.252 2.394-.21 2.309-.21 2.226-.21 1.092-.126 1.049-.126 1.05-.126.966-.126.923-.168.883-.167.881-.168.798-.21.715-.211.713-.251.588-.253.588-.251-1.176-.588-1.218-.588-1.176-.546-1.217-.546-1.176-.504-1.217-.504-1.218-.504-1.218-.462-1.218-.462-1.218-.419-1.259-.462-1.218-.378-1.26-.42-1.259-.378-1.261-.378-1.259-.378-1.26-.336-1.26-.336-1.301-.336-1.26-.335-1.302-.295-1.301-.293-1.302-.337-1.302-.251-2.646-.588-2.645-.547-2.688-.503-2.687-.504-.041-.004-.119-.065s-4.153-1.532-9.424-2.656Z"/>
</svg>
