<svg xmlns="http://www.w3.org/2000/svg" xml:space="preserve" fill-rule="evenodd" width="100%" height="100%" stroke-linejoin="round" stroke-miterlimit="2" clip-rule="evenodd" version="1.1" viewBox="0 0 1000 1000"><path d="M1000 500c0 276.142-223.858 500-500 500S0 776.142 0 500 223.858 0 500 0s500 223.858 500 500" fill="#ffa136" fill-rule="nonzero"/><path d="M504.876 152.524a230.871 230.871 0 0 0-46.116 3.65c-120.633 21.827-203.384 133.847-188.79 255.57a231.698 231.698 0 0 0 28.478 86.342l1.641 3.151.135.24L500.01 847.533l201.578-349.447a231.673 231.673 0 0 0 30.111-113.924l-6.566-54.771C700.299 227.318 609.9 154.73 504.874 152.524h.002Z" fill="#ff8900" fill-rule="nonzero"/><path d="M618.747 382.944c.001 62.637-49.431 115.11-111.957 118.845-62.526 3.735-117.853-42.481-125.309-104.673-7.458-62.193 35.376-120.177 97.013-131.329 61.638-11.152 122.073 28.15 136.879 89.014" fill="#ffa136" fill-rule="nonzero"/></svg>
