<svg xmlns="http://www.w3.org/2000/svg" xml:space="preserve" fill-rule="evenodd" width="100%" height="100%" stroke-linejoin="round" stroke-miterlimit="2" clip-rule="evenodd" version="1.1" viewBox="0 0 1500 1500"><path d="M1500 750c0 414.212-335.788 750-750 750S0 1164.212 0 750 335.788 0 750 0s750 335.788 750 750" fill="#4fbdec" fill-rule="nonzero"/><clipPath id="a"><path d="M256.018 115h850.957v1252.57H256.018z"/></clipPath><g clip-path="url(#a)"><path d="M754.457 2349.5c-7.285-21.939-37.75-200.528-33.618-267.127 3.774-60.89-24.745-105.125-19.099-162.118 9.348-94.481-25.019-192.41-24.56-350.593.257-88.537-6.877-74.812-3.366-111.018 3.148-32.422-9.521-59.795-2.242-92.389 14.05-62.982 12.641-61.88 5.613-60.471-11.327 2.264-.57-17.466-.195-35.732.139-6.865-3.635-12.568-8.314-12.568-5.356 0-31.818 8.89-45.605 15.319-7.251 3.383-12.797 5.121-13.569 4.266-1.342-1.498-.157-17.13 2.974-39.287 5.474-38.717-4.92-127.69 18.797-157.842 1.219-1.554 44.257-96.979 44.257-105.69 0-3.595 13.323-40.517 12.037-43.866-1.694-4.428-51.514-.704-71.155-3.93-15.721-2.578-81.123-3.528-95-7.145-11.707-3.047-29.486-14.844-45.297-23.728-19.965-11.226-52.174-42.815-78.893-62.07-26.003-18.746-31.516-25.164-44.856-36.162-12.199-10.052-15.352-14.458-16.677-23.297-.548-3.645-2.158-7.671-3.59-8.945-9.258-8.264-50.809-24.007-44.24-31.919 2.902-3.494 23.442-13.177 25.93-12.221 3.797 1.453 4.02-2.555.42-7.431-5.502-7.447-5.155-22.385.715-30.861 4.993-7.212 5.396-10.343 1.711-13.379-11.4-9.398-18.824-38.18-24.024-55.764-10.774-36.435-53.219-63.842-29.492-63.842 4.249 0 7.453 1.728 14.632 7.867 11.159 9.554 10.93 9.588 17.175 3.03 4.271-4.49 5.205-4.792 12.115-3.886 5.943.777 7.486.509 7.486-1.308 0-4.982-6.25-16.42-12.562-22.99-11.344-11.808-11.976-13.317-8.694-20.597 12.959-28.748 45.387 50.52 54.925 46.863 8.895-3.41-12.239-51.537-16.225-51.537-.643 0-2.018-1.85-3.047-4.12-4.21-9.242 7.794-11.814 17.846-3.824 25.785 20.49 20.776 47.55 35.536 64.222 12.031 13.597 8.459 20.312 21.111 7.66 18.081-18.087 38.348-5.043 20.848 9.303-20.971 17.186-.788 40.182-7.883 70.557-1.359 5.831-2.097 11.579-1.638 12.775 1.498 3.897 17.717 16.829 21.111 16.829 7.017 0 13.653 4.489 21.201 14.34 16.247 21.218 38.543 31.359 57.787 48.518 9.465 8.436 17.98 14.145 26.668 17.868 3.892 1.666 8.331 4.383 9.863 6.027 6.742 7.235 10.102-11.556 29.57-1.627 7.262 3.707 14.547 3.153 19.059 3.153-1.66-8.855-3.874-10.846 10.651-40.696 15.514-31.89-20.776-2.504-26.931-60.722-3.551-33.618-11.915-6.726-13.827-28.117-2.158-24.219-8.515.923-19.696-4.17-3.668-1.672-3.813-2.321-3.651-16.851.173-16.37 2.309-21.514 10.17-24.505 2.907-1.107 3.734-2.594 3.734-6.731 0-9.013 6.262-7.168 6.374-16.689.235-19.417 5.473-22.034 15.945-30.963-3.321-25.483-42.077-409.839-35.105-422.854 16.152-30.197 47.455 400.038 51.956 415.832 2.035 7.145 13.535 2.047 18.892 5.351 7.413 4.579 11.528 34.719 19.758 48.199 6.619 10.846 9.901 17.046 15.129 61.527 4.478 38.108 1.973 10.383 27.501 29.951 15.738 12.065 9.197 4.07 22.526 16.247 76.097 69.517 77.238 40.355 99.232 45.286 14.945 3.349 12.641-6.508 30.722-12.876 4.473-1.577 9.331-3.947 10.791-5.267 1.459-1.319 3.751-2.398 5.093-2.398 3.421 0 22.52-11.584 36.721-17.891 13.468-5.982 85.009-30.979 131.765-30.979 16.577 0 18.769 1.437 18.797 12.328.039 14.637 11.081 21.676 7.894 30.823-1.671 4.797-.492 7.094 7.794 15.173 3.41 3.327 7.939 10.584 7.939 12.719 0 0 17.119 41.356 17.237 41.669 21.033 55.847 58.726 130.748-9.197 231.44-20.474 30.347-11.836 29.034-21.771 46.852-2.723 4.875-20.932 35.267-20.983 50.871-.095 26.54-17.946 49.105-17.572 75.041.38 26.462 30.985 72.066 41.401 102.604 14.15 41.49 26.909 69.153 29.575 81.604 17.466 81.431-24.186 247.419 19.021 406.289 3.432 12.63 2.331 16.331-5.575 18.707-14.049 4.221-7.821 7.732-12.272 14.928-1.733 2.801-8.252 2.191-15.363-1.437-9.024-4.601-52.012-18.612-54.355-17.717-2.711 1.039-2.84 17.147-5.473 29.659-4.277 20.34 6.893 19.25-4.82 41.194-9.873 18.5 2.069 14.022 1.873 37.207-.128 15.14-.469 22.285.811 31.538 1.996 14.436-4.299 11.925.112 23.761 34.988 93.977 71.49 257.142 71.58 283.614.045 12.289 14.34 111.589 14.553 112.986-266.713-1.347 30.465-1.621-334.502-1.85Zm42.451-12.121c0-2.941-21.48-7.721-11.914-.721 3.455 2.521 11.914 3.03 11.914.721Zm-6.004-9.499c-2.298.022-2.343.235-.302 1.554 6.401 4.132 4.981-1.599.302-1.554Zm-11.065-10.282c-1.246 1.247.587 2.488 7.101 4.814 20.602 7.352-4.233-7.682-7.101-4.814Zm-2.717-8.531c-1.336 2.169 15.403 9.616 17.309 7.704 4.619-4.607-16.442-9.108-17.309-7.704Zm16.633-1.784c0-1.884-9.532-6.223-13.664-6.223-8.688 0 11.869 7.051 13.267 7.699.218.095.397-.565.397-1.476Zm-8.789-12.887c-20.563-7.374.14 6.514 6.95 6.625 1.61.028 4.573-2.493-6.95-6.625Zm-7.827-7.631c.57.922 2.242 1.66 3.707 1.632 5.076-.1-7.397-7.603-3.707-1.632Zm6.374-6.201c-1.04 0-1.04 1.577 0 1.577 1.039 0 1.039-1.577 0-1.577Zm-7.28-3.153c-2.052 0-.156 3.153 1.951 3.153 2.052 0 .151-3.153-1.951-3.153Zm12.798-1.632c0-1.7-14.14-8.404-15.291-7.246-.66.659 11.903 8.425 14.111 8.722.643.083 1.18-.582 1.18-1.476Zm-7.492-12.06c-6.955-3.17-8.275-4.35-8.275-2.488 0 4.244 25.903 10.533 8.275 2.488Zm1.974-5.227c-1.04 0-1.04 1.576 0 1.576 1.039 0 1.039-1.576 0-1.576Zm.788-6.15c0-1.577-9.549-5.317-10.684-4.182-.537.536 6.295 4.17 10.292 5.473.213.073.392-.509.392-1.291Zm-5.468-12.06c-10.326-4.316-11.528-2.013-1.627 3.125 9.739 5.055 9.063-.016 1.627-3.125Zm4.663-5.412c1.135-1.834-8.224-7.889-12.2-7.9-9.7-.033 9.857 11.696 12.2 7.9Zm-11.501-15.42c-2.046.437-1.565 1.18 2.052 3.187 13.429 7.447 5.446-4.774-2.052-3.187Zm7.576-4.288c0-2.068-9.085-7.117-12.803-7.117-5.049 0 4.327 7.067 12.406 9.348.218.062.397-.939.397-2.231Zm0-10.242c0-1.471-9.829-6.329-12.803-6.329-7.917 0 12.803 11.584 12.803 6.329Zm-14.19-12.747c0 1.498 4.926 3.153 6.262 2.102 1.208-.951-6.262-5.681-6.262-2.102Zm8.672-4.619c-1.04 0-1.04 1.577 0 1.577s1.04-1.577 0-1.577Zm-3.154-1.576c-1.039 0-1.039 1.576 0 1.576 1.04 0 1.04-1.576 0-1.576Zm4.686-6.24c1.028-1.66-7.039-6.373-10.914-6.373-4.377 0-2.577 2.667 3.467 5.149 7.061 2.902 6.25 3.164 7.447 1.224Zm-7.839-12.674c-1.04 0-1.04 1.577 0 1.577s1.04-1.577 0-1.577Zm-1.973-10.187c-5.345-1.593-4.35 1.862 1.576 5.474 11.517 7.022 11.283-1.638-1.576-5.474Zm5.915-3.813c0-1.8-9.264-5.641-10.539-4.366-.537.537 1.437 2.024 4.383 3.304 6.502 2.818 6.156 2.756 6.156 1.062Zm-3.399-10.589c-1.124-.699-1.393-.43-.694.694 2.091 3.382 4.065 1.397.694-.694Zm3.399-7.391c0-2.091-7.827-7.436-10.886-7.436-2.996 0-1.873 4.451 1.778 7.006 4.244 2.98 9.108 3.209 9.108.43Zm-7.883-12.16c0 1.157.475 1.627 1.051 1.051 1.403-1.403-1.051-3.869-1.051-1.051Zm4.73-4.16c0-3.432-14.341-8.598-6.525-2.091 3.712 3.092 6.525 3.992 6.525 2.091Zm-4.127-11.601c-3.08 0-1.224 3.154 1.952 3.154 3.075-.006 1.224-3.154-1.952-3.154Zm1.365-8.492c-4.037-1.426-6.698-3.198-6.698-1.342 0 .805 1.593 2.236 3.55 3.176 8.129 3.924 6.765-.56 3.148-1.834Zm-6.262-12.004c-3.466 0-2.197 2.947 2.32 5.401 13.452 7.296 3.668-5.401-2.32-5.401Zm6.754-5.568c-7.867-5.949-7.341 2.471-.224 2.365 3.22-.051 3.232-.09.224-2.365Zm-6.402-10.148c-2.013 0 2.583 3.058 4.73 3.058 2.007 0-2.583-3.058-4.73-3.058Zm-2.27-11.031c-4.081.084 3.405 4.686 6.122 4.63 4.076-.084-3.41-4.686-6.122-4.63Zm-.777-9.51c-3.606 0-3.013 2.41 1.079 4.384 12.004 5.786 7.805-4.384-1.079-4.384Zm6.989-4.763c0-2.058-7.548-5.552-8.957-4.149-1.834 1.834 8.957 8.84 8.957 4.149Zm-3.249-9.426c-2.029 0-.318 3.153.973 3.153 1.18 0 1.074-3.153-.973-3.153Zm-4.137-10.981c-2.359.039-2.085.738 1.56 3.942 11.282 9.918 9.169-4.132-1.56-3.942Zm.895-7.933c-2.052 0-.157 3.153 1.951 3.153 2.052 0 .151-3.153-1.951-3.153Zm5.797-5.569c-7.866-5.949-7.34 2.471-.223 2.365 3.226-.05 3.226-.089.223-2.365Zm2.952-13.178c1.152-1.861-6.027-6.479-10.086-6.479-9.968.005 7.257 11.058 10.086 6.479Zm-.682-10.639c0-1.974-5.574-5.199-9.063-5.244-4.232-.062-4.64 2.309-.788 4.551 3.07 1.789 9.851 2.264 9.851.693Zm-7.095-11.601c-1.19-1.923-8.173-2.158-3.153 0 4.221 1.811 4.272 1.811 3.153 0Zm-5.043-10.684c-2.258.486-1.705 1.319 2.679 4.064 15.671 9.812 4.908-5.702-2.679-4.064Zm-1.079-8.61c-1.565.928 4.982 4.965 8.185 5.054 5.016.129-4.701-7.123-8.185-5.054Zm-.972-7.553c0 1.61 7.564 6.222 10.248 6.239 2.152 0-10.248-11.674-10.248-6.239Zm10.203-3.036c.984-1.594-7.028-6.407-10.522-6.324-1.867.045 7.464 11.283 10.522 6.324Zm-8.476-14.246c-1.543 0-.682 1.18 2.214 3.036 11.45 7.335.995-3.047-2.214-3.036Zm3.003-6.318c-2.08 0-2.08 3.154 0 3.154 2.079 0 2.085-3.154 0-3.154Zm-1.18-7.927c-4.204-2.069-4.227-2.147-.788-2.729 4.623-.777 4.489-2.488-.392-5.104-4.651-2.488-5.552-1.879-5.982 4.048-.772 10.494 20.546 10.371 7.162 3.785Zm-4.07-15.666c-3.344.05-3.355.101-.358 2.365 9.018 6.821 13.793-2.566.358-2.365Zm8.47-7.184c3.03-1.873 1.375-4.954-4.065-7.548-6.737-3.209-7.039-3.232-7.039-.481 0 4.093 9.622 7.045 4.333 7.201-7.313.218 2.343 6.279 4.898 6.34 3.203.067-.447-4.081 1.873-5.512Zm-3.612-13.39c-3.405-1.65-3.427-1.622-.486.732 5.222 4.182 5.574 1.739.486-.732Zm-1.672-9.404c-1.129.016-.933.631.487 1.554 5.608 3.623 2.102-1.582-.487-1.554Zm6.793-4.697c0-3.623-15.816-8.006-8.101-1.582 3.953 3.299 8.101 4.104 8.101 1.582Zm-1.867-9.118c-.648-3.422-6.234-3.282-9.952-3.618 3.176 2.723 11.21 10.248 9.952 3.618Zm-9.952-11.428c.537.866 2.527 1.565 4.428 1.554 7.453-.056-6.938-5.613-4.428-1.554Zm3.908-7.134c-2.683-3.237-4.556-1.046-1.498.889 3.332 2.108 3.768 1.85 1.498-.889Zm-1.716-6.966c2.074 1.727 4.204 2.711 4.73 2.186 2.331-2.343-13.128-9.175-4.73-2.186Zm-2.812-10.248c-1.124 1.118 4.383 5.451 6.826 5.372 2.153-.061-5.535-6.664-6.826-5.372Zm.223-10.282c-3.019-.078-2.342 4.35.789 5.166 13.82 3.612 2.488-5.088-.789-5.166Zm.615-6.323c-3.259.033-3.237.139.571 3.119 2.169 1.694 5.361 3.075 7.094 3.064 5.731-.033-4.21-6.217-7.665-6.183Zm-3.231-7.33c1.202 3.131 7.397 5.697 9.32 3.858 3.455-3.304-11.378-9.214-9.32-3.858Zm1.124-9.471c-.643.643-.129 1.834 1.146 2.639 8.699 5.507 1.096-4.881-1.146-2.639Zm3.857-9.605c7.308-2.566-7.033-12.043-6.636-2.829.218 5.009 4.993 10.293 9.242 10.226 6.647-.101-6.609-5.994-2.606-7.397Zm3.55-9.778c0-2.393-9.286-8.286-11.198-7.101-2.958 1.823 11.198 12.16 11.198 7.101Zm-10.158-14.246c-2.141.062 3.858 4.696 6.116 4.629 2.147-.061-3.852-4.696-6.116-4.629Zm-3.55-10.522c-1.359 1.359 4.226 7.318 6.854 7.318 7.078 0-5.099-9.068-6.854-7.318Zm3.008-7.732c-1.353 1.353 3.063 5.596 5.764 5.54 4.126-.084-4.903-6.401-5.764-5.54Zm-.174-7.704c-.989.989 3.014 3.801 5.356 3.762 2.035-.033-4.215-4.909-5.356-3.762Zm-3.276-11.875c-1.638.033-.995 1.291 2.013 3.941 12.087 10.628 7.452-4.137-2.013-3.941Zm-1.616-17.522c0 1.571 2.684 2.963 6.105 3.159 5.077.296-6.105-8.012-6.105-3.159Zm.789-10.835c-2.036.061 7.346 7.816 9.459 7.754 2.03-.067-7.346-7.821-9.459-7.754Zm7.089-3.182c0-4.254-16.538-10.013-7.85-1.923 3.875 3.606 7.85 4.579 7.85 1.923Zm-4.82-11.075c-2.029 0-.318 3.153.973 3.153 1.174 0 1.074-3.153-.973-3.153Zm-4.17-10.449c-.666.665.559 2.56 2.711 4.215 12.842 9.874-.335-6.592-2.711-4.215Zm-1.46-7.995c-1.174 1.174 7.442 7.413 10.243 7.413 3.433 0-9.303-8.358-10.243-7.413Zm8.879-1.706c0-1.213-8.252-6.647-10.097-6.647-1.762 0-2.069 3.908 9.705 7.754.213.067.392-.43.392-1.107Zm-10.668-13.848c-1.286 1.286 6.419 7.089 9.482 7.15 9.432.174-8.084-8.548-9.482-7.15Zm12.239-2.924c0-2.186-10.483-6.715-12.009-5.189-1.398 1.398 12.009 11.613 12.009 5.189Zm-6.396-11.942c-2.03 0-.319 3.153.973 3.153 1.174-.006 1.073-3.153-.973-3.153Zm-4.596-9.415c-1.638.033-.995 1.291 2.013 3.941 12.087 10.634 7.452-4.132-2.013-3.941Zm9.443-.873c-.587-4.327-15.408-8.537-6.161-.844 3.863 3.209 6.536 3.578 6.161.844Zm.688-8.749c-2.136-3.455-20.362-10.746-6.441-.196 4.288 3.243 8.409 3.371 6.441.196Zm-.045-14.598c-2.695-7.028-23.437-8.795-9.13-1.247 7.14 3.763 10.259 4.188 9.13 1.247Zm-6.094-16.152c1.683 1.23 3.394 1.901 3.802 1.493 1.806-1.806-10.293-6.24-3.802-1.493Zm-5.11-11.685c-2.141.005-1.677.794 1.867 3.142 12.049 7.978 7.291-3.176-1.867-3.142Zm-.296-9.421c-2.153.039-2.075.42.497 2.365 8.554 6.474 4.501-2.465-.497-2.365Zm2.767-6.351c-2.057 0-.156 3.153 1.946 3.153 2.057-.005.156-3.153-1.946-3.153Zm1.258-8.923c.766-2.102-2.65-5.954-2.65.827 0 5.681 2.505 5.284 6.156 6.329 1.397.408-4.524-4.349-3.506-7.156Zm4.954-6.195c-.537-2.644-10.757-7.788-10.757-5.417 0 1.705 12.199 12.518 10.757 5.417Zm1.856-8.498c0-1.353-11.059-7.911-13.335-7.911-1.397 0-2.096 3.539 4.272 6.704 5.96 2.968 9.063 3.382 9.063 1.207Zm-4.78-12.702c-3.036-1.918-8.974-1.996-6.972-.09 2.722 2.578 12.719 3.718 6.972.09Zm-2.701-9.399c-3.858 0 1.264 4.73 3.925 4.73 3.858 0-1.269-4.73-3.925-4.73Zm-4.344-1.576c-1.04 0-1.04 1.576 0 1.576s1.04-1.576 0-1.576Zm3.942-7.403c-5.485-2.068-6.62.437-1.18 2.623 8.034 3.231 7.665-.174 1.18-2.623Zm4.729-4.869c0-.677-2.13-2.494-4.729-4.031-7.112-4.199-5.636 1.146-.392 3.22 5.222 2.063 5.121 2.404 5.121.811Zm-2.46-11.378c-3.371 0-.849 3.154.973 3.154 1.784 0 2.455-3.154-.973-3.154Zm-3.751-17.287c-3.796.084 4.579 6.475 6.614 5.217 2.371-1.465-3.673-5.278-6.614-5.217Zm2.868-6.356c-2.052 0-.156 3.153 1.951 3.153 2.052 0 .157-3.153-1.951-3.153Zm-4.54-8.23c0 1.655 5.971 4.814 9.404 4.97 6.117.285-9.404-8.537-9.404-4.97Zm1.583-9.108c-3.998 0-2.751 2.773 2.124 4.741 12.188 4.915 7.531-4.741-2.124-4.741Zm8.9-3.891c-.492-1.275-.207-2.734.621-3.248 7.184-4.439-16.756-12.759-8.744-3.908 5.037 5.568-3.813 1.509.592 6.843 2.745 3.338 8.784 3.584 7.531.313Zm-1.643-16.879c1.772-2.868-7.263-7.044-7.263-2.18 0 2.683 5.965 7.206 9.415 7.134 4.573-.09-3.886-2.153-2.152-4.954Zm-7.263-12.579c0 1.772 6.29 4.741 10.248 4.83 7.011.157-10.248-9.666-10.248-4.83Zm10.242-5.44c-15-11.562-9.594 2.359.789 2.415 1.761.011 1.554-.609-.789-2.415Zm-6.546-17.964c-3.472 0-2.455 7.47 1.38 10.159 12.613 8.833 4.462-10.159-1.38-10.159Zm-93.849-613.503c.855-7.42-10.846-10.209-12.725-3.036-2.532 9.678 11.886 10.237 12.725 3.036Zm40.595-73.163c-.844-3.377-15.391-17.98-17.907-17.98-.766 0-2.365 3.014-3.556 6.698-20.804 64.373-61.93 62.696-44.979 81.196 5.793 6.324 10.383 6.217 10.383-.246 0-10.98 18.919-13.217 18.919.761-.005 22.995 42.094-50.553 37.14-70.429Zm-68.672 73.945c0-.592-1.532-2.711-3.411-4.707-10.93-11.635 17.6-29.744 17.6-33.026 0-1.397-10.952-15.458-13.608-7.296-9.348 28.788-20.278 40.842-11.221 44.487 4.272 1.716 10.64 2.046 10.64.542Zm-285.118-13.826c-8.705-2.762-10.494-13.983-2.55-15.979 5.138-1.291 5.284-1.694-1.588-9.191-4.377-4.78-6.233-5.792-9.062-4.931-4.249 1.291-22.576 5.166-21.391 11.606.486 2.645 24.141 19.199 27.44 19.205.95.006 3.008 1.426 4.579 3.159 7.011 7.754 6.927-2.488 2.572-3.869Zm3.567-6.513c2.896-7.542-9.041-6.849-6.329.218 1.174 3.052 5.127 2.918 6.329-.218Zm-4.82-30.13c-4.388-4.142-4.908-12.204-1.129-17.6 2.259-3.226 3.399-3.528 9.851-2.633 27.272 3.791 21.894-4.461 70.177-13.211 19.232-3.483 14.81-4.076-9.756-30.085-11.506.52-68.12-.973-80.604 32.394-3.567 9.538-4.115 17.169-1.688 23.554 1.638 4.3 16.856 21.296 19.07 21.296 1.157.005-.24-8.353-5.921-13.715Zm8.566-16.23c-3.668 0-9.097 4.188-9.097 7.022 0 2.382 3.282 5.586 5.725 5.586 2.203 0 13.799-12.608 3.372-12.608Zm444.642 16.896c-10.393-12.138 1.498-9.298 5.736-58.308.777-8.978.515-10.829-1.66-11.662-1.739-.665-3.824.593-6.374 3.852-4.193 5.362-18.148 16.119-20.904 16.119-3.209 0-1.823-4.076 2.941-8.644 14.793-14.178 12.853-19.892 12.121-29.358-1.974-25.584 12.915-26.025-1.063-29.788-13.479-3.628-14.558-17.578-2.286-29.43 26.489-25.573 13.848-47.813 9.655-47.813-3.304 0-6.295 10.298-4.154 14.307 2.628 4.914-.335 7.279-5.009 4.008-9.376-6.575-25.036 3.998-22.587-14.106 2.521-18.667 8.749-13.591 9.627-11.304 1.75 4.562 10.03 1.666 10.03-3.506 0-1.146-3.114-3.969-6.916-6.267-37.794-22.828 30.141-86.983 51.705-82.857 8.291 1.582 18.958-8.666 31.84-6.905 13.776 1.89 9.331-4.925 25.701-3.069 30.454 3.455 2.404-5.798 45.845-6.525l21.273-.357c19.021-9.337 34.647-19.015 51.632-9.063 9.175 5.378 29.106 27.054 36.095 39.265 7.542 13.172 9.214 19.735 9.225 36.268.017 23.688 5.199 18.751 7.201 40.902 3.366 37.292-34.574 103.991-25.5 111.522 4.663 3.869-2.024 53.488-2.141 20.211-.062-17.941-.123-17.975-26.87-14.587-38.504 4.87-42.424 5.703-64.608 13.714-28.128 10.142-86.704 27.759-86.704 46.047 0 6.049 6.307 17.371 6.307 17.371 0 1.778-34.837 20.06-37.649 19.758-1.398-.145-16.527-2.818-22.509-9.795Zm79.687-31.488c3.953-9.957 6.675-10.086 2.521.458-3.762 9.55-2.734 9.399-4.836 9.399-2.247.005-1.213-.984 2.315-9.857Z" fill="#766c61" fill-rule="nonzero"/></g><clipPath id="b"><path d="M229 115h850.957v1252.57H229z"/></clipPath><g clip-path="url(#b)"><path d="M727.438 2349.5c-7.285-21.939-37.749-200.528-33.618-267.127 3.774-60.89-24.745-105.125-19.098-162.118 9.348-94.481-25.019-192.41-24.561-350.593.257-88.537-6.877-74.812-3.365-111.018 3.147-32.422-9.522-59.795-2.242-92.389 14.049-62.982 12.641-61.88 5.613-60.471-11.327 2.264-.57-17.466-.196-35.732.14-6.865-3.634-12.568-8.314-12.568-5.356 0-31.817 8.89-45.604 15.319-7.252 3.383-12.798 5.121-13.569 4.266-1.342-1.498-.157-17.13 2.974-39.287 5.473-38.717-4.92-127.69 18.797-157.842 1.218-1.554 44.257-96.979 44.257-105.69 0-3.595 13.323-40.517 12.037-43.866-1.694-4.428-51.514-.704-71.155-3.93-15.722-2.578-81.124-3.528-95-7.145-11.708-3.047-29.486-14.844-45.298-23.728-19.965-11.226-52.174-42.815-78.892-62.07-26.004-18.746-31.516-25.164-44.856-36.162-12.199-10.052-15.353-14.458-16.678-23.297-.547-3.645-2.158-7.671-3.589-8.945-9.258-8.264-50.81-24.007-44.241-31.919 2.902-3.494 23.443-13.177 25.931-12.221 3.796 1.453 4.02-2.555.419-7.431-5.501-7.447-5.155-22.385.716-30.861 4.993-7.212 5.395-10.343 1.711-13.379-11.4-9.398-18.825-38.18-24.024-55.764-10.774-36.435-53.22-63.842-29.492-63.842 4.249 0 7.452 1.728 14.631 7.867 11.16 9.554 10.93 9.588 17.175 3.03 4.272-4.49 5.205-4.792 12.116-3.886 5.943.777 7.486.509 7.486-1.308 0-4.982-6.251-16.42-12.563-22.99-11.344-11.808-11.975-13.317-8.694-20.597 12.96-28.748 45.387 50.52 54.925 46.863 8.895-3.41-12.238-51.537-16.224-51.537-.643 0-2.019-1.85-3.048-4.12-4.209-9.242 7.794-11.814 17.847-3.824 25.785 20.49 20.775 47.55 35.535 64.222 12.032 13.597 8.459 20.312 21.111 7.66 18.081-18.087 38.348-5.043 20.849 9.303-20.972 17.186-.789 40.182-7.883 70.557-1.359 5.831-2.097 11.579-1.639 12.775 1.499 3.897 17.718 16.829 21.112 16.829 7.016 0 13.653 4.489 21.2 14.34 16.247 21.218 38.544 31.359 57.788 48.518 9.465 8.436 17.98 14.145 26.668 17.868 3.891 1.666 8.33 4.383 9.862 6.027 6.743 7.235 10.103-11.556 29.57-1.627 7.263 3.707 14.548 3.153 19.06 3.153-1.661-8.855-3.875-10.846 10.65-40.696 15.515-31.89-20.775-2.504-26.931-60.722-3.55-33.618-11.914-6.726-13.826-28.117-2.158-24.219-8.515.923-19.697-4.17-3.667-1.672-3.813-2.321-3.651-16.851.174-16.37 2.309-21.514 10.17-24.505 2.907-1.107 3.735-2.594 3.735-6.731 0-9.013 6.262-7.168 6.373-16.689.235-19.417 5.474-22.034 15.946-30.963-3.321-25.483-42.077-409.839-35.105-422.854 16.152-30.197 47.455 400.038 51.956 415.832 2.035 7.145 13.535 2.047 18.891 5.351 7.414 4.579 11.529 34.719 19.758 48.199 6.62 10.846 9.902 17.046 15.129 61.527 4.479 38.108 1.974 10.383 27.502 29.951 15.738 12.065 9.197 4.07 22.525 16.247 76.098 69.517 77.238 40.355 99.233 45.286 14.944 3.349 12.641-6.508 30.722-12.876 4.472-1.577 9.331-3.947 10.79-5.267 1.459-1.319 3.752-2.398 5.093-2.398 3.422 0 22.52-11.584 36.721-17.891 13.469-5.982 85.01-30.979 131.766-30.979 16.577 0 18.769 1.437 18.797 12.328.039 14.637 11.081 21.676 7.894 30.823-1.672 4.797-.492 7.094 7.794 15.173 3.41 3.327 7.939 10.584 7.939 12.719 0 0 17.119 41.356 17.236 41.669 21.033 55.847 58.727 130.748-9.197 231.44-20.473 30.347-11.836 29.034-21.771 46.852-2.722 4.875-20.932 35.267-20.982 50.871-.095 26.54-17.947 49.105-17.572 75.041.38 26.462 30.984 72.066 41.4 102.604 14.151 41.49 26.909 69.153 29.576 81.604 17.466 81.431-24.186 247.419 19.02 406.289 3.433 12.63 2.332 16.331-5.574 18.707-14.05 4.221-7.822 7.732-12.272 14.928-1.733 2.801-8.252 2.191-15.364-1.437-9.023-4.601-52.012-18.612-54.354-17.717-2.712 1.039-2.84 17.147-5.474 29.659-4.277 20.34 6.894 19.25-4.819 41.194-9.873 18.5 2.069 14.022 1.873 37.207-.129 15.14-.47 22.285.811 31.538 1.996 14.436-4.3 11.925.111 23.761 34.988 93.977 71.491 257.142 71.58 283.614.045 12.289 14.341 111.589 14.554 112.986-266.713-1.347 30.464-1.621-334.503-1.85Zm42.452-12.121c0-2.941-21.48-7.721-11.914-.721 3.455 2.521 11.914 3.03 11.914.721Zm-6.005-9.499c-2.298.022-2.342.235-.302 1.554 6.402 4.132 4.982-1.599.302-1.554Zm-11.064-10.282c-1.247 1.247.587 2.488 7.1 4.814 20.603 7.352-4.232-7.682-7.1-4.814Zm-2.717-8.531c-1.336 2.169 15.403 9.616 17.309 7.704 4.618-4.607-16.443-9.108-17.309-7.704Zm16.633-1.784c0-1.884-9.533-6.223-13.665-6.223-8.688 0 11.87 7.051 13.268 7.699.218.095.397-.565.397-1.476Zm-8.789-12.887c-20.564-7.374.14 6.514 6.949 6.625 1.61.028 4.574-2.493-6.949-6.625Zm-7.827-7.631c.57.922 2.241 1.66 3.706 1.632 5.077-.1-7.396-7.603-3.706-1.632Zm6.373-6.201c-1.04 0-1.04 1.577 0 1.577s1.04-1.577 0-1.577Zm-7.279-3.153c-2.052 0-.157 3.153 1.951 3.153 2.052 0 .151-3.153-1.951-3.153Zm12.797-1.632c0-1.7-14.139-8.404-15.291-7.246-.659.659 11.903 8.425 14.112 8.722.643.083 1.179-.582 1.179-1.476Zm-7.491-12.06c-6.956-3.17-8.275-4.35-8.275-2.488 0 4.244 25.903 10.533 8.275 2.488Zm1.973-5.227c-1.04 0-1.04 1.576 0 1.576s1.04-1.576 0-1.576Zm.788-6.15c0-1.577-9.549-5.317-10.684-4.182-.536.536 6.296 4.17 10.293 5.473.213.073.391-.509.391-1.291Zm-5.467-12.06c-10.327-4.316-11.529-2.013-1.627 3.125 9.739 5.055 9.062-.016 1.627-3.125Zm4.662-5.412c1.135-1.834-8.224-7.889-12.199-7.9-9.7-.033 9.857 11.696 12.199 7.9Zm-11.5-15.42c-2.046.437-1.566 1.18 2.052 3.187 13.429 7.447 5.445-4.774-2.052-3.187Zm7.576-4.288c0-2.068-9.086-7.117-12.804-7.117-5.048 0 4.328 7.067 12.407 9.348.218.062.397-.939.397-2.231Zm0-10.242c0-1.471-9.829-6.329-12.804-6.329-7.916 0 12.804 11.584 12.804 6.329Zm-14.19-12.747c0 1.498 4.925 3.153 6.262 2.102 1.207-.951-6.262-5.681-6.262-2.102Zm8.671-4.619c-1.04 0-1.04 1.577 0 1.577s1.04-1.577 0-1.577Zm-3.153-1.576c-1.04 0-1.04 1.576 0 1.576s1.04-1.576 0-1.576Zm4.685-6.24c1.029-1.66-7.039-6.373-10.913-6.373-4.378 0-2.578 2.667 3.466 5.149 7.061 2.902 6.251 3.164 7.447 1.224Zm-7.838-12.674c-1.04 0-1.04 1.577 0 1.577s1.04-1.577 0-1.577Zm-1.974-10.187c-5.345-1.593-4.349 1.862 1.577 5.474 11.517 7.022 11.282-1.638-1.577-5.474Zm5.915-3.813c0-1.8-9.264-5.641-10.538-4.366-.537.537 1.436 2.024 4.383 3.304 6.502 2.818 6.155 2.756 6.155 1.062Zm-3.399-10.589c-1.124-.699-1.392-.43-.693.694 2.091 3.382 4.064 1.397.693-.694Zm3.399-7.391c0-2.091-7.827-7.436-10.885-7.436-2.997 0-1.873 4.451 1.778 7.006 4.243 2.98 9.107 3.209 9.107.43Zm-7.883-12.16c0 1.157.475 1.627 1.051 1.051 1.404-1.403-1.051-3.869-1.051-1.051Zm4.73-4.16c0-3.432-14.34-8.598-6.524-2.091 3.712 3.092 6.524 3.992 6.524 2.091Zm-4.126-11.601c-3.08 0-1.224 3.154 1.951 3.154 3.075-.006 1.225-3.154-1.951-3.154Zm1.364-8.492c-4.036-1.426-6.698-3.198-6.698-1.342 0 .805 1.594 2.236 3.551 3.176 8.129 3.924 6.765-.56 3.147-1.834Zm-6.262-12.004c-3.466 0-2.197 2.947 2.321 5.401 13.451 7.296 3.667-5.401-2.321-5.401Zm6.754-5.568c-7.866-5.949-7.341 2.471-.223 2.365 3.22-.051 3.231-.09.223-2.365Zm-6.401-10.148c-2.013 0 2.583 3.058 4.73 3.058 2.007 0-2.583-3.058-4.73-3.058Zm-2.27-11.031c-4.082.084 3.405 4.686 6.122 4.63 4.076-.084-3.411-4.686-6.122-4.63Zm-.777-9.51c-3.606 0-3.014 2.41 1.079 4.384 12.003 5.786 7.805-4.384-1.079-4.384Zm6.988-4.763c0-2.058-7.547-5.552-8.956-4.149-1.834 1.834 8.956 8.84 8.956 4.149Zm-3.248-9.426c-2.03 0-.319 3.153.973 3.153 1.179 0 1.073-3.153-.973-3.153Zm-4.137-10.981c-2.36.039-2.086.738 1.56 3.942 11.282 9.918 9.169-4.132-1.56-3.942Zm.894-7.933c-2.052 0-.156 3.153 1.951 3.153 2.052 0 .151-3.153-1.951-3.153Zm5.798-5.569c-7.866-5.949-7.341 2.471-.224 2.365 3.226-.05 3.226-.089.224-2.365Zm2.952-13.178c1.152-1.861-6.027-6.479-10.086-6.479-9.968.005 7.257 11.058 10.086 6.479Zm-.682-10.639c0-1.974-5.574-5.199-9.063-5.244-4.232-.062-4.64 2.309-.788 4.551 3.069 1.789 9.851 2.264 9.851.693Zm-7.095-11.601c-1.191-1.923-8.174-2.158-3.153 0 4.221 1.811 4.271 1.811 3.153 0Zm-5.043-10.684c-2.259.486-1.705 1.319 2.678 4.064 15.671 9.812 4.909-5.702-2.678-4.064Zm-1.079-8.61c-1.565.928 4.982 4.965 8.185 5.054 5.015.129-4.702-7.123-8.185-5.054Zm-.973-7.553c0 1.61 7.565 6.222 10.248 6.239 2.153 0-10.248-11.674-10.248-6.239Zm10.204-3.036c.984-1.594-7.028-6.407-10.522-6.324-1.868.045 7.463 11.283 10.522 6.324Zm-8.476-14.246c-1.543 0-.682 1.18 2.214 3.036 11.45 7.335.995-3.047-2.214-3.036Zm3.002-6.318c-2.08 0-2.08 3.154 0 3.154s2.086-3.154 0-3.154Zm-1.18-7.927c-4.204-2.069-4.226-2.147-.788-2.729 4.624-.777 4.49-2.488-.391-5.104-4.652-2.488-5.552-1.879-5.982 4.048-.772 10.494 20.546 10.371 7.161 3.785Zm-4.07-15.666c-3.343.05-3.354.101-.358 2.365 9.019 6.821 13.793-2.566.358-2.365Zm8.47-7.184c3.031-1.873 1.376-4.954-4.064-7.548-6.737-3.209-7.039-3.232-7.039-.481 0 4.093 9.622 7.045 4.333 7.201-7.313.218 2.343 6.279 4.898 6.34 3.203.067-.448-4.081 1.872-5.512Zm-3.611-13.39c-3.405-1.65-3.427-1.622-.487.732 5.222 4.182 5.574 1.739.487-.732Zm-1.672-9.404c-1.129.016-.934.631.487 1.554 5.607 3.623 2.102-1.582-.487-1.554Zm6.793-4.697c0-3.623-15.817-8.006-8.101-1.582 3.953 3.299 8.101 4.104 8.101 1.582Zm-1.867-9.118c-.649-3.422-6.234-3.282-9.952-3.618 3.176 2.723 11.21 10.248 9.952 3.618Zm-9.952-11.428c.537.866 2.527 1.565 4.428 1.554 7.453-.056-6.938-5.613-4.428-1.554Zm3.908-7.134c-2.684-3.237-4.557-1.046-1.498.889 3.332 2.108 3.768 1.85 1.498-.889Zm-1.716-6.966c2.074 1.727 4.204 2.711 4.729 2.186 2.332-2.343-13.127-9.175-4.729-2.186Zm-2.813-10.248c-1.123 1.118 4.384 5.451 6.827 5.372 2.152-.061-5.535-6.664-6.827-5.372Zm.224-10.282c-3.019-.078-2.343 4.35.788 5.166 13.821 3.612 2.488-5.088-.788-5.166Zm.615-6.323c-3.26.033-3.237.139.57 3.119 2.169 1.694 5.362 3.075 7.095 3.064 5.731-.033-4.21-6.217-7.665-6.183Zm-3.232-7.33c1.202 3.131 7.397 5.697 9.32 3.858 3.456-3.304-11.377-9.214-9.32-3.858Zm1.124-9.471c-.643.643-.128 1.834 1.146 2.639 8.7 5.507 1.096-4.881-1.146-2.639Zm3.858-9.605c7.307-2.566-7.033-12.043-6.636-2.829.218 5.009 4.992 10.293 9.241 10.226 6.648-.101-6.608-5.994-2.605-7.397Zm3.55-9.778c0-2.393-9.286-8.286-11.198-7.101-2.958 1.823 11.198 12.16 11.198 7.101Zm-10.159-14.246c-2.141.062 3.858 4.696 6.117 4.629 2.147-.061-3.852-4.696-6.117-4.629Zm-3.55-10.522c-1.358 1.359 4.227 7.318 6.855 7.318 7.078 0-5.099-9.068-6.855-7.318Zm3.008-7.732c-1.353 1.353 3.064 5.596 5.764 5.54 4.126-.084-4.903-6.401-5.764-5.54Zm-.173-7.704c-.99.989 3.013 3.801 5.356 3.762 2.035-.033-4.216-4.909-5.356-3.762Zm-3.276-11.875c-1.639.033-.996 1.291 2.012 3.941 12.088 10.628 7.453-4.137-2.012-3.941Zm-1.616-17.522c0 1.571 2.683 2.963 6.105 3.159 5.077.296-6.105-8.012-6.105-3.159Zm.788-10.835c-2.035.061 7.347 7.816 9.46 7.754 2.029-.067-7.347-7.821-9.46-7.754Zm7.089-3.182c0-4.254-16.537-10.013-7.849-1.923 3.874 3.606 7.849 4.579 7.849 1.923Zm-4.819-11.075c-2.029 0-.319 3.153.973 3.153 1.174 0 1.073-3.153-.973-3.153Zm-4.171-10.449c-.665.665.559 2.56 2.712 4.215 12.842 9.874-.336-6.592-2.712-4.215Zm-1.459-7.995c-1.174 1.174 7.441 7.413 10.243 7.413 3.432 0-9.304-8.358-10.243-7.413Zm8.878-1.706c0-1.213-8.252-6.647-10.097-6.647-1.761 0-2.068 3.908 9.706 7.754.212.067.391-.43.391-1.107Zm-10.667-13.848c-1.286 1.286 6.418 7.089 9.482 7.15 9.432.174-8.084-8.548-9.482-7.15Zm12.238-2.924c0-2.186-10.483-6.715-12.009-5.189-1.398 1.398 12.009 11.613 12.009 5.189Zm-6.396-11.942c-2.029 0-.318 3.153.973 3.153 1.174-.006 1.074-3.153-.973-3.153Zm-4.595-9.415c-1.638.033-.995 1.291 2.012 3.941 12.088 10.634 7.453-4.132-2.012-3.941Zm9.443-.873c-.587-4.327-15.409-8.537-6.161-.844 3.863 3.209 6.535 3.578 6.161.844Zm.687-8.749c-2.135-3.455-20.362-10.746-6.44-.196 4.288 3.243 8.408 3.371 6.44.196Zm-.044-14.598c-2.695-7.028-23.437-8.795-9.13-1.247 7.139 3.763 10.259 4.188 9.13 1.247Zm-6.094-16.152c1.682 1.23 3.393 1.901 3.801 1.493 1.806-1.806-10.292-6.24-3.801-1.493Zm-5.11-11.685c-2.142.005-1.678.794 1.867 3.142 12.048 7.978 7.29-3.176-1.867-3.142Zm-.297-9.421c-2.152.039-2.074.42.498 2.365 8.554 6.474 4.5-2.465-.498-2.365Zm2.768-6.351c-2.058 0-.157 3.153 1.945 3.153 2.058-.005.157-3.153-1.945-3.153Zm1.258-8.923c.766-2.102-2.65-5.954-2.65.827 0 5.681 2.504 5.284 6.155 6.329 1.398.408-4.523-4.349-3.505-7.156Zm4.953-6.195c-.537-2.644-10.757-7.788-10.757-5.417 0 1.705 12.2 12.518 10.757 5.417Zm1.856-8.498c0-1.353-11.058-7.911-13.334-7.911-1.398 0-2.096 3.539 4.272 6.704 5.959 2.968 9.062 3.382 9.062 1.207Zm-4.78-12.702c-3.036-1.918-8.973-1.996-6.972-.09 2.723 2.578 12.72 3.718 6.972.09Zm-2.7-9.399c-3.858 0 1.263 4.73 3.925 4.73 3.857 0-1.27-4.73-3.925-4.73Zm-4.344-1.576c-1.04 0-1.04 1.576 0 1.576s1.04-1.576 0-1.576Zm3.941-7.403c-5.484-2.068-6.619.437-1.179 2.623 8.034 3.231 7.665-.174 1.179-2.623Zm4.73-4.869c0-.677-2.13-2.494-4.73-4.031-7.111-4.199-5.635 1.146-.391 3.22 5.222 2.063 5.121 2.404 5.121.811Zm-2.46-11.378c-3.371 0-.85 3.154.973 3.154 1.783 0 2.454-3.154-.973-3.154Zm-3.751-17.287c-3.797.084 4.579 6.475 6.614 5.217 2.37-1.465-3.674-5.278-6.614-5.217Zm2.868-6.356c-2.052 0-.157 3.153 1.951 3.153 2.052 0 .156-3.153-1.951-3.153Zm-4.54-8.23c0 1.655 5.971 4.814 9.404 4.97 6.116.285-9.404-8.537-9.404-4.97Zm1.582-9.108c-3.997 0-2.751 2.773 2.125 4.741 12.188 4.915 7.531-4.741-2.125-4.741Zm8.901-3.891c-.492-1.275-.207-2.734.62-3.248 7.185-4.439-16.755-12.759-8.744-3.908 5.038 5.568-3.813 1.509.593 6.843 2.745 3.338 8.783 3.584 7.531.313Zm-1.644-16.879c1.772-2.868-7.262-7.044-7.262-2.18 0 2.683 5.965 7.206 9.415 7.134 4.573-.09-3.886-2.153-2.153-4.954Zm-7.262-12.579c0 1.772 6.289 4.741 10.248 4.83 7.011.157-10.248-9.666-10.248-4.83Zm10.242-5.44c-15-11.562-9.594 2.359.788 2.415 1.761.011 1.555-.609-.788-2.415Zm-6.547-17.964c-3.472 0-2.454 7.47 1.381 10.159 12.613 8.833 4.462-10.159-1.381-10.159ZM618.26 766.941c.855-7.42-10.847-10.209-12.725-3.036-2.533 9.678 11.886 10.237 12.725 3.036Zm40.595-73.163c-.844-3.377-15.392-17.98-17.908-17.98-.765 0-2.364 3.014-3.555 6.698-20.804 64.373-61.93 62.696-44.979 81.196 5.792 6.324 10.382 6.217 10.382-.246 0-10.98 18.92-13.217 18.92.761-.006 22.995 42.094-50.553 37.14-70.429Zm-68.673 73.945c0-.592-1.532-2.711-3.41-4.707-10.93-11.635 17.6-29.744 17.6-33.026 0-1.397-10.953-15.458-13.608-7.296-9.348 28.788-20.278 40.842-11.221 44.487 4.271 1.716 10.639 2.046 10.639.542Zm-285.118-13.826c-8.705-2.762-10.494-13.983-2.549-15.979 5.138-1.291 5.283-1.694-1.588-9.191-4.378-4.78-6.234-5.792-9.063-4.931-4.249 1.291-22.576 5.166-21.39 11.606.486 2.645 24.141 19.199 27.44 19.205.95.006 3.007 1.426 4.579 3.159 7.01 7.754 6.927-2.488 2.571-3.869Zm3.567-6.513c2.896-7.542-9.04-6.849-6.329.218 1.175 3.052 5.127 2.918 6.329-.218Zm-4.819-30.13c-4.389-4.142-4.909-12.204-1.129-17.6 2.258-3.226 3.399-3.528 9.851-2.633 27.272 3.791 21.894-4.461 70.176-13.211 19.233-3.483 14.811-4.076-9.756-30.085-11.506.52-68.119-.973-80.603 32.394-3.567 9.538-4.115 17.169-1.689 23.554 1.638 4.3 16.857 21.296 19.071 21.296 1.157.005-.241-8.353-5.921-13.715Zm8.565-16.23c-3.667 0-9.096 4.188-9.096 7.022 0 2.382 3.282 5.586 5.725 5.586 2.203 0 13.798-12.608 3.371-12.608ZM757.02 717.92c-10.394-12.138 1.498-9.298 5.736-58.308.777-8.978.514-10.829-1.661-11.662-1.738-.665-3.824.593-6.373 3.852-4.193 5.362-18.148 16.119-20.904 16.119-3.21 0-1.823-4.076 2.94-8.644 14.794-14.178 12.854-19.892 12.121-29.358-1.973-25.584 12.915-26.025-1.062-29.788-13.48-3.628-14.559-17.578-2.287-29.43 26.49-25.573 13.849-47.813 9.656-47.813-3.304 0-6.295 10.298-4.154 14.307 2.628 4.914-.336 7.279-5.01 4.008-9.376-6.575-25.036 3.998-22.587-14.106 2.522-18.667 8.75-13.591 9.628-11.304 1.75 4.562 10.03 1.666 10.03-3.506 0-1.146-3.114-3.969-6.916-6.267-37.794-22.828 30.14-86.983 51.704-82.857 8.292 1.582 18.959-8.666 31.84-6.905 13.776 1.89 9.332-4.925 25.702-3.069 30.453 3.455 2.404-5.798 45.845-6.525l21.273-.357c19.02-9.337 34.647-19.015 51.632-9.063 9.174 5.378 29.106 27.054 36.095 39.265 7.542 13.172 9.213 19.735 9.224 36.268.017 23.688 5.2 18.751 7.202 40.902 3.365 37.292-34.574 103.991-25.5 111.522 4.662 3.869-2.024 53.488-2.142 20.211-.061-17.941-.123-17.975-26.87-14.587-38.504 4.87-42.423 5.703-64.608 13.714-28.127 10.142-86.703 27.759-86.703 46.047 0 6.049 6.306 17.371 6.306 17.371 0 1.778-34.836 20.06-37.648 19.758-1.398-.145-16.527-2.818-22.509-9.795Zm79.686-31.488c3.953-9.957 6.676-10.086 2.522.458-3.763 9.55-2.734 9.399-4.836 9.399-2.248.005-1.213-.984 2.314-9.857Z" fill="#ff8900" fill-rule="nonzero"/></g></svg>
