<svg xmlns="http://www.w3.org/2000/svg" xml:space="preserve" fill-rule="evenodd" width="100%" height="100%" stroke-miterlimit="10" clip-rule="evenodd" version="1.1" viewBox="0 0 500 500"><path d="M500 250c0 138.071-111.929 250-250 250S0 388.071 0 250 111.929 0 250 0s250 111.929 250 250" fill="#4fbdec" fill-rule="nonzero"/><path d="M383.671 332.703a50.52 50.52 0 0 0-2.055-14.267v-176.71h-46.961v-16.704h-20.158v16.704H190.524v-16.704h-20.158v16.704h-46.961v241.507h258.211V346.97a50.525 50.525 0 0 0 2.055-14.267" fill="#30677f" fill-rule="nonzero"/><path d="M116.329 181.85H374.54v193.127H116.329z" fill="#fff"/><path d="M116.329 133.47H374.54v48.38H116.329z" fill="#ff8900"/><path d="M163.291 116.767h20.158v32.83h-20.158zm144.13 0h20.158v32.83h-20.158z" fill="#fff"/><path d="M144.645 223.659h40.316v40.316h-40.316zm40.316 0h40.316v40.316h-40.316zm40.316 0h40.316v40.316h-40.316zm40.316 0h40.316v40.316h-40.316zm40.316 0h40.316v40.316h-40.316z" fill="none" stroke="#f78820" stroke-width="5"/><path d="M144.645 263.974h40.316v40.316h-40.316zm40.316 0h40.316v40.316h-40.316zm40.316 0h40.316v40.316h-40.316zm40.316 0h40.316v40.316h-40.316zm40.316 0h40.316v40.316h-40.316zm-161.264 40.317h40.316v40.316h-40.316zm40.316 0h40.316v40.316h-40.316zm40.316 0h40.316v40.316h-40.316zm40.316 0h40.316v40.316h-40.316zm40.316 0h40.316v40.316h-40.316z" fill="none" stroke="#f78820" stroke-width="5"/><path d="M376.596 324.449c0 27.905-22.623 50.529-50.53 50.529-27.906 0-50.528-22.624-50.528-50.529 0-27.907 22.622-50.53 50.528-50.53 27.907 0 50.53 22.623 50.53 50.53" fill="#f78820" fill-rule="nonzero"/><path d="M357.598 309.061a2.695 2.695 0 0 0-3.817 0l-37.625 37.624-17.801-17.801a2.7 2.7 0 0 0-3.82 3.817l19.09 19.087c.127.265.29.517.509.735a2.692 2.692 0 0 0 1.91.791c.04 0 .08-.008.12-.01.035.001.068.009.103.009.691 0 1.382-.263 1.909-.791.217-.217.378-.466.506-.728l38.916-38.916a2.697 2.697 0 0 0 0-3.817" fill="#fff" fill-rule="nonzero"/></svg>
