<svg xmlns="http://www.w3.org/2000/svg" xml:space="preserve" fill-rule="evenodd" width="100%" height="100%" stroke-linejoin="round" stroke-miterlimit="2" clip-rule="evenodd" version="1.1" viewBox="0 0 1000 1000"><path d="M1000 500c0 276.142-223.858 500-500 500S0 776.142 0 500 223.858 0 500 0s500 223.858 500 500" fill="#ffa136" fill-rule="nonzero"/><path d="M713.512 168.021c-89.786 19.709-301.806 66.891-310.366 68.882-10.95 2.588-34.441 4.778-34.441 34.64v396.965c-24.686-13.935-62.312-15.727-99.938-2.19-55.743 20.108-90.184 66.095-76.845 102.925 13.338 36.83 69.28 50.367 124.823 30.26 51.761-18.714 85.206-59.724 79.035-94.961V404.329c0-16.524-.398-37.825 42.603-46.983 19.709-4.18 287.87-63.905 287.87-63.905v277.518c-24.686-14.334-62.711-16.324-100.735-2.588-55.742 20.107-90.183 66.095-76.845 102.924 13.339 36.83 69.28 50.368 124.823 30.261 51.363-18.515 84.41-58.928 79.234-93.966h.598V225.555c0-47.381 33.445-48.575 33.445-48.575V150.9l-73.261 17.121Z" fill="#bb6400" fill-rule="nonzero"/><path d="M697.399 168.021c-89.785 19.709-301.805 66.891-310.366 68.882-10.949 2.588-34.441 4.778-34.441 34.64v396.965c-24.686-13.935-62.312-15.727-99.938-2.19-55.742 20.108-90.183 66.095-76.845 102.925 13.339 36.83 69.28 50.367 124.823 30.26 51.761-18.714 85.207-59.724 79.035-94.961V404.329c0-16.524-.398-37.825 42.603-46.983 19.709-4.18 287.87-63.905 287.87-63.905v277.518c-24.686-14.334-62.71-16.324-100.734-2.588-55.743 20.107-90.184 66.095-76.845 102.924 13.338 36.83 69.28 50.368 124.823 30.261 51.363-18.515 84.41-58.928 79.234-93.966h.597V225.555c0-47.381 33.445-48.575 33.445-48.575V150.9l-73.261 17.121Z" fill="#ff8900" fill-rule="nonzero"/></svg>
