<svg xmlns="http://www.w3.org/2000/svg" xml:space="preserve" fill-rule="evenodd" width="100%" height="100%" stroke-linejoin="round" stroke-miterlimit="2" clip-rule="evenodd" version="1.1" viewBox="0 0 400 400"><path d="M400 200c0 110.457-89.543 200-200 200S0 310.457 0 200 89.543 0 200 0s200 89.543 200 200" fill="#4fbdec" fill-rule="nonzero"/><path d="m196.558 178.114 23.183 64.865 140.258 11.004v-3.29l-3.186-1.671-52.309-81.445-107.948 10.537h.002Z" fill="url(#a)" fill-rule="nonzero"/><path d="m43.025 248.757-3.349 1.926v3.29l140.257-11.004 23.183-64.865-107.947-10.537-52.148 81.19h.004Z" fill="url(#b)" fill-rule="nonzero"/><path d="M179.938 239.679v3.292s5.328 6.904 19.904 6.904c0 0 11.659.011 19.903-6.904v-3.292l-7.903-9.435-31.904 9.435Z" fill="url(#c)" fill-rule="nonzero"/><path d="m181.783 234.514-1.845 5.165s5.328 6.906 19.904 6.906c0 0 11.659.011 19.903-6.906l-1.845-5.165-6.058-7.562-30.059 7.562Z" fill="url(#d)" fill-rule="nonzero"/><path d="M199.84 245.71c-12.923 0-18.567-5.418-19.683-6.649l-.22.619s5.328 6.906 19.903 6.906c0 0 11.659.011 19.904-6.906l-.245-.686c-8.229 6.717-19.659 6.716-19.659 6.716" fill="url(#e)" fill-rule="nonzero"/><path d="m196.558 174.82 23.183 64.865 140.258 11.005-55.495-86.406-107.948 10.536h.002Z" fill="url(#f)" fill-rule="nonzero"/><path d="M181.771 234.465s17.092 12.761 36.121.114l-4.215-11.509s-30.069 1.139-31.906 11.395" fill="url(#g)" fill-rule="nonzero"/><path d="m39.681 250.689 140.257-11.005 23.183-64.865-107.947-10.536-55.497 86.406h.004Z" fill="url(#h)" fill-rule="nonzero"/><path d="m40.3 249.723-.616.96 140.258-11.005v-.911L40.291 249.723h.009Z" fill="url(#i)" fill-rule="nonzero"/><path d="M219.743 239.679 360 250.684l-.614-.96-139.651-10.955v.91h.008Z" fill="url(#j)" fill-rule="nonzero"/><path d="m61.639 225.573-4.706 17.245s54.941-15.325 124.85-8.3l-15.561-27.92-104.584 18.975h.001Z" fill="url(#k)" fill-rule="nonzero"/><path d="M217.897 234.514c69.911-7.024 124.851 8.301 124.851 8.301l-4.706-17.246-104.586-18.975-15.561 27.92h.002Z" fill="url(#l)" fill-rule="nonzero"/><path d="m103.054 148.49-46.277 65.668 143.068 15.923.08-66.056.006.003v-4.758s-24.472-14.857-62.396-14.857c-10.534 0-22.108 1.147-34.483 4.077" fill="url(#m)" fill-rule="nonzero"/><path d="M56.772 214.154s4.212 4.679 2.105 25.053c0 0 59.009-15.689 140.963-2.107v-7.023s-36.143-21.942-92.148-21.942c-15.558-.001-32.647 1.692-50.922 6.019" fill="#fff" fill-rule="nonzero"/><path d="M56.772 214.154s.162.182.405.62c83.846-19.693 142.66 16.014 142.66 16.014v-.712S140.83 194.25 56.768 214.154" fill="#fff" fill-rule="nonzero"/><path d="M199.84 230.081s-48.75-46.09-132.294-24.567l27.623-41.231 97.299 20.245 7.37 45.553h.002Z" fill="#8c8c8c" fill-rule="nonzero"/><path d="M199.754 159.265v4.758l.005-.003.08 66.056 143.069-15.923-46.277-65.668c-12.375-2.93-23.948-4.077-34.483-4.077-37.925 0-62.396 14.857-62.396 14.857" fill="url(#n)" fill-rule="nonzero"/><path d="M199.84 230.081s40.141-41.874 137.1-24.397l-41.981-57.744s-74.683 37.069-95.117 82.141" fill="#8c8c8c" fill-rule="nonzero"/><path d="M199.84 230.081v7.023c81.955-13.582 140.964 2.107 140.964 2.107-2.107-20.375 2.105-25.053 2.105-25.053-18.275-4.328-35.363-6.021-50.921-6.019-56.006 0-92.149 21.942-92.149 21.942m-89.912-96.391-46.278 65.668s91.778-21.407 136.183 30.716l.079-66.055.006.003v-4.759s-24.053-28.403-66.443-28.403c-7.314 0-15.176.846-23.552 2.83" fill="#fff" fill-rule="nonzero"/><path d="M199.84 229.375c-42.329-49.683-127.699-32.559-135.6-30.847l-.589.836s91.78-21.407 136.183 30.715v-.704h.006Zm-.083-70.001v4.653l.005-.003.081 66.055c47.929-61.494 107.581-55.711 107.581-55.711L273.5 108.7c-64.777 11.067-73.512 50.728-73.743 50.674v-.106c-.006.07-.006.103 0 .106" fill="#fff" fill-rule="nonzero"/><path d="M277.641 223.071s37.156-1.937 62.628 8.402l-.038-1.51s-24.535-7.584-49.984-7.584c-4.214 0-8.449.208-12.606.692" fill="url(#o)" fill-rule="nonzero"/><path d="M195.691 236.434s1.333-.742 8.308 0l-4.152.666-4.156-.666Z" fill="#8c8c8c" fill-rule="nonzero"/><path d="m199.84 230.081-.276-.163-.291 6.343h1.323l-.448-6.361-.308.181Z" fill="#8c8c8c" fill-rule="nonzero"/><defs><linearGradient id="a" x1="0" x2="1" y1="0" y2="0" gradientTransform="scale(-154.5394 154.5394) rotate(-20.993 -1232.056 234.217)" gradientUnits="userSpaceOnUse"><stop offset="0" stop-color="#12161c" stop-opacity="1"/><stop offset="1" stop-color="#8087a1" stop-opacity="1"/></linearGradient><linearGradient id="b" x1="0" x2="1" y1="0" y2="0" gradientTransform="scale(153.6734 -153.6734) rotate(4.383 5996.917 237.214)" gradientUnits="userSpaceOnUse"><stop offset="0" stop-color="#12161c" stop-opacity="1"/><stop offset="1" stop-color="#8087a1" stop-opacity="1"/></linearGradient><linearGradient id="c" x1="0" x2="1" y1="0" y2="0" gradientTransform="matrix(0 -38.5859 -38.5859 0 17983.2 127.064)" gradientUnits="userSpaceOnUse"><stop offset="0" stop-color="#12161c" stop-opacity="1"/><stop offset="1" stop-color="#8087a1" stop-opacity="1"/></linearGradient><linearGradient id="d" x1="0" x2="1" y1="0" y2="0" gradientTransform="scale(18.90821 -18.90821) rotate(3.097 8811.168 407.48)" gradientUnits="userSpaceOnUse"><stop offset="0" stop-color="#3b465b" stop-opacity="1"/><stop offset="1" stop-color="#8087a1" stop-opacity="1"/></linearGradient><linearGradient id="e" x1="0" x2="1" y1="0" y2="0" gradientTransform="matrix(43.1485 .65772 .65772 -43.1485 -121.963 20243.1)" gradientUnits="userSpaceOnUse"><stop offset="0" stop-color="#12161c" stop-opacity="1"/><stop offset="1" stop-color="#bcc7ed" stop-opacity="1"/></linearGradient><linearGradient id="f" x1="0" x2="1" y1="0" y2="0" gradientTransform="matrix(112.657 9.98137 9.98137 -112.657 -4351.12 52047)" gradientUnits="userSpaceOnUse"><stop offset="0" stop-color="#3b465b" stop-opacity="1"/><stop offset="1" stop-color="#8087a1" stop-opacity="1"/></linearGradient><linearGradient id="g" x1="0" x2="1" y1="0" y2="0" gradientTransform="matrix(0 -33.611 -33.611 0 15953.7 133.195)" gradientUnits="userSpaceOnUse"><stop offset="0" stop-color="#12161c" stop-opacity="1"/><stop offset="1" stop-color="#8087a1" stop-opacity="1"/></linearGradient><linearGradient id="h" x1="0" x2="1" y1="0" y2="0" gradientTransform="scale(78.45366 -78.45366) rotate(6.12 4330.3 235.586)" gradientUnits="userSpaceOnUse"><stop offset="0" stop-color="#3b465b" stop-opacity="1"/><stop offset="1" stop-color="#8087a1" stop-opacity="1"/></linearGradient><linearGradient id="i" x1="0" x2="1" y1="0" y2="0" gradientTransform="matrix(3.05879 11.8515 11.8515 -3.05879 -5364.03 1576.93)" gradientUnits="userSpaceOnUse"><stop offset="0" stop-color="#12161c" stop-opacity="1"/><stop offset="1" stop-color="#bcc7ed" stop-opacity="1"/></linearGradient><linearGradient id="j" x1="0" x2="1" y1="0" y2="0" gradientTransform="matrix(-3.05879 11.8515 11.8515 3.05879 5763.7 1576.92)" gradientUnits="userSpaceOnUse"><stop offset="0" stop-color="#12161c" stop-opacity="1"/><stop offset="1" stop-color="#bcc7ed" stop-opacity="1"/></linearGradient><linearGradient id="k" x1="0" x2="1" y1="0" y2="0" gradientTransform="matrix(0 -71.1913 -71.1913 0 33335.4 16.22)" gradientUnits="userSpaceOnUse"><stop offset="0" stop-color="#12161c" stop-opacity="1"/><stop offset="1" stop-color="#8087a1" stop-opacity="1"/></linearGradient><linearGradient id="l" x1="0" x2="1" y1="0" y2="0" gradientTransform="matrix(0 -71.1913 -71.1913 0 -32936 16.22)" gradientUnits="userSpaceOnUse"><stop offset="0" stop-color="#12161c" stop-opacity="1"/><stop offset="1" stop-color="#8087a1" stop-opacity="1"/></linearGradient><linearGradient id="m" x1="0" x2="1" y1="0" y2="0" gradientTransform="scale(-132.7736 132.7736) rotate(-5.177 -5259.048 255.677)" gradientUnits="userSpaceOnUse"><stop offset="0" stop-color="#c4c4c4" stop-opacity="1"/><stop offset=".77" stop-color="#fdfdff" stop-opacity="1"/><stop offset="1" stop-color="#ebebed" stop-opacity="1"/></linearGradient><linearGradient id="n" x1="0" x2="1" y1="0" y2="0" gradientTransform="scale(72.6744 -72.6744) rotate(12.339 2219.507 252.471)" gradientUnits="userSpaceOnUse"><stop offset="0" stop-color="#c4c4c4" stop-opacity="1"/><stop offset=".77" stop-color="#fdfdff" stop-opacity="1"/><stop offset="1" stop-color="#ebebed" stop-opacity="1"/></linearGradient><linearGradient id="o" x1="0" x2="1" y1="0" y2="0" gradientTransform="matrix(-62.6173 0 0 62.6173 340.259 231.473)" gradientUnits="userSpaceOnUse"><stop offset="0" stop-color="#aeaeb0" stop-opacity="1"/><stop offset="1" stop-color="#dfdfe0" stop-opacity="1"/></linearGradient></defs></svg>
