<svg xmlns="http://www.w3.org/2000/svg" xml:space="preserve" fill-rule="evenodd" width="100%" height="100%" stroke-linejoin="round" stroke-miterlimit="2" clip-rule="evenodd" version="1.1" viewBox="0 0 1000 1000"><path d="M1000 500c0 276.142-223.858 500-500 500S0 776.142 0 500 223.858 0 500 0s500 223.858 500 500" fill="#ffa136" fill-rule="nonzero"/><path d="M999.844 487.393c.104 4.169.156 8.382.156 12.607 0 209.205-128.485 388.401-310.871 462.992L500.01 773.872l105.776-513.989 394.058 227.51Z" fill-opacity=".1" fill-rule="nonzero"/><path d="M503.843 226.17a181.833 181.833 0 0 0-36.342 2.876c-95.066 17.2-160.278 105.479-148.777 201.403a182.579 182.579 0 0 0 22.441 68.043l1.294 2.483.106.189 157.443 272.712 158.855-275.384a182.574 182.574 0 0 0 23.729-89.779l-5.174-43.162c-19.571-80.44-90.81-137.643-173.576-139.381h.001Z" fill="#ff8900" fill-rule="nonzero"/><path d="M593.58 407.753c0 49.362-38.955 90.713-88.229 93.657-49.274 2.943-92.875-33.477-98.751-82.488-5.877-49.011 27.879-94.707 76.452-103.495 48.574-8.788 96.201 22.184 107.869 70.148" fill="#ffa136" fill-rule="nonzero"/></svg>
